<?xml version="1.0" encoding="utf-8"?>
<!-- Generator: Adobe Illustrator 17.0.0, SVG Export Plug-In . SVG Version: 6.00 Build 0)  -->
<!DOCTYPE svg PUBLIC "-//W3C//DTD SVG 1.1//EN" "http://www.w3.org/Graphics/SVG/1.1/DTD/svg11.dtd">
<svg version="1.1" id="Layer_1" xmlns="http://www.w3.org/2000/svg" xmlns:xlink="http://www.w3.org/1999/xlink" x="0px" y="0px"
	 width="49px" height="49px" viewBox="0 0 49 49" enable-background="new 0 0 49 49" xml:space="preserve">
<rect opacity="0" fill="#5FBE7E" width="49" height="49"/>
<g id="noun_3d_modeling_2034874" transform="translate(451.142 1849.835)">
	<path id="Path_247" stroke="#272727" d="M-404.538-1839.221c-0.01-0.291-0.184-0.55-0.45-0.668l-21.316-9.389
		c-0.193-0.076-0.407-0.076-0.6,0l-21.316,9.389l0,0c-0.076,0.076-0.526,0.15-0.526,0.676v27.388
		c-0.003,0.296,0.175,0.564,0.45,0.676l21.316,9.757c0.193,0.076,0.407,0.076,0.6,0l21.316-9.757c0.275-0.112,0.453-0.38,0.45-0.676
		C-404.538-1811.901-404.538-1839.297-404.538-1839.221z M-426.604-1847.778l19.515,8.557c-0.456,0.224,2.772-1.202-19.515,8.635
		l-19.515-8.635L-426.604-1847.778z M-447.171-1838.021c0.759,0.3,14.637,6.456,19.815,8.781v26.046l-19.815-9.165V-1838.021z
		 M-406.039-1812.358l-19.815,9.089v-26.044l19.815-8.781V-1812.358z"/>
</g>
</svg>
