<svg xmlns="http://www.w3.org/2000/svg" width="49" height="49" viewBox="0 0 49 49">
  <g id="Default" transform="translate(-440 -1839)">
    <circle id="Ellipse_5" data-name="Ellipse 5" cx="24.5" cy="24.5" r="24.5" transform="translate(440 1839)" fill="#efefef"/>
    <g id="noun_3d_modeling_2034874" data-name="noun_3d modeling_2034874" transform="translate(451.142 1849.835)">
      <path id="Path_247" data-name="Path 247" d="M26.784,6.352A.4.4,0,0,0,26.547,6L15.32,1.055a.433.433,0,0,0-.316,0L3.777,6h0c-.04.04-.277.079-.277.356V20.781a.38.38,0,0,0,.237.356l11.227,5.139a.433.433,0,0,0,.316,0l11.227-5.139a.38.38,0,0,0,.237-.356C26.784,20.741,26.784,6.312,26.784,6.352ZM15.162,1.845,25.44,6.352C25.2,6.47,26.9,5.719,15.162,10.9L4.884,6.352ZM4.33,6.984c.4.158,7.709,3.4,10.436,4.625V25.327L4.33,20.5ZM25.993,20.5,15.557,25.287V11.57L25.993,6.945Z" transform="translate(-1.784)" stroke="#272727" stroke-width="1"/>
    </g>
  </g>
</svg>
