<svg id="android-app" xmlns="http://www.w3.org/2000/svg" xmlns:xlink="http://www.w3.org/1999/xlink" width="235.89" height="67.389" viewBox="0 0 235.89 67.389">
  <defs>
    <clipPath id="clip-path">
      <rect id="Rectangle_1080" data-name="Rectangle 1080" width="235.89" height="67.389"/>
    </clipPath>
    <clipPath id="clip-path-2">
      <path id="Path_57" data-name="Path 57" d="M86.6,46.091v42.15a.929.929,0,0,0,.57.965l22.441-22.251L87.361,44.889a1.118,1.118,0,0,0-.758,1.2" transform="translate(-86.603 -44.889)"/>
    </clipPath>
    <linearGradient id="linear-gradient" x1="-1.126" y1="1.217" x2="-1.113" y2="1.217" gradientUnits="objectBoundingBox">
      <stop offset="0" stop-color="#2179b0"/>
      <stop offset="0.31" stop-color="#4d96b9"/>
      <stop offset="0.774" stop-color="#83bfbe"/>
      <stop offset="1" stop-color="#96cfbf"/>
    </linearGradient>
    <clipPath id="clip-path-3">
      <path id="Path_58" data-name="Path 58" d="M89.451,44.749a1.18,1.18,0,0,0-.316.042l22.253,22.066,6.181-6.129-9.29-5.363-.048-.028h0l-.025-.014h0l-.021-.012,0,0,0,0-.006,0,0,0-.006,0h0l-.006,0-.006,0-17.836-10.3a1.811,1.811,0,0,0-.855-.24h0" transform="translate(-89.135 -44.749)"/>
    </clipPath>
    <linearGradient id="linear-gradient-2" x1="-0.938" y1="2.442" x2="-0.928" y2="2.442" gradientUnits="objectBoundingBox">
      <stop offset="0" stop-color="#5abcab"/>
      <stop offset="1" stop-color="#e6e99a"/>
    </linearGradient>
    <clipPath id="clip-path-4">
      <path id="Path_59" data-name="Path 59" d="M110.949,118.619,88.509,140.87a1.212,1.212,0,0,0,.959-.152l2.6-1.5,15.775-9.109,4.645-2.681,4.645-2.681-6.18-6.128Z" transform="translate(-88.509 -118.619)"/>
    </clipPath>
    <linearGradient id="linear-gradient-3" x1="-0.926" y1="1.427" x2="-0.915" y2="1.427" gradientUnits="objectBoundingBox">
      <stop offset="0" stop-color="#e53432"/>
      <stop offset="0.167" stop-color="#d73948"/>
      <stop offset="0.575" stop-color="#b33f72"/>
      <stop offset="0.862" stop-color="#9a4189"/>
      <stop offset="1" stop-color="#904192"/>
    </linearGradient>
    <clipPath id="clip-path-5">
      <path id="Path_60" data-name="Path 60" d="M163.49,104.268l6.181,6.128,6.794-3.923,2.135-1.232c1.013-.585.952-1.381.147-1.863l-.057-.033-.027-.015c-.826-.445-7.961-4.593-8.891-5.134l-.1-.058Z" transform="translate(-163.49 -98.139)"/>
    </clipPath>
    <linearGradient id="linear-gradient-4" x1="-3.035" y1="3.102" x2="-3.016" y2="3.102" gradientUnits="objectBoundingBox">
      <stop offset="0" stop-color="#f18779"/>
      <stop offset="0.119" stop-color="#f2917a"/>
      <stop offset="0.713" stop-color="#fabc77"/>
      <stop offset="1" stop-color="#fdcb73"/>
    </linearGradient>
  </defs>
  <g id="Group_173" data-name="Group 173">
    <g id="Group_172" data-name="Group 172" clip-path="url(#clip-path)">
      <path id="Path_56" data-name="Path 56" d="M235.89,60.684a6.7,6.7,0,0,1-6.773,6.705H6.612A6.489,6.489,0,0,1,0,60.772V6.607A6.48,6.48,0,0,1,6.612,0H229.118a6.587,6.587,0,0,1,6.741,6.607V60.772Z" fill="#1c1a15"/>
    </g>
  </g>
  <g id="Group_175" data-name="Group 175" transform="translate(25.919 13.435)">
    <g id="Group_174" data-name="Group 174" clip-path="url(#clip-path-2)">
      <rect id="Rectangle_1081" data-name="Rectangle 1081" width="23.011" height="44.317" fill="url(#linear-gradient)"/>
    </g>
  </g>
  <g id="Group_177" data-name="Group 177" transform="translate(26.677 13.393)">
    <g id="Group_176" data-name="Group 176" clip-path="url(#clip-path-3)">
      <rect id="Rectangle_1082" data-name="Rectangle 1082" width="28.435" height="22.108" fill="url(#linear-gradient-2)"/>
    </g>
  </g>
  <g id="Group_179" data-name="Group 179" transform="translate(26.489 35.501)">
    <g id="Group_178" data-name="Group 178" clip-path="url(#clip-path-4)">
      <rect id="Rectangle_1083" data-name="Rectangle 1083" width="28.622" height="22.339" transform="translate(0 0)" fill="url(#linear-gradient-3)"/>
    </g>
  </g>
  <g id="Group_181" data-name="Group 181" transform="translate(48.93 29.372)">
    <g id="Group_180" data-name="Group 180" clip-path="url(#clip-path-5)">
      <rect id="Rectangle_1084" data-name="Rectangle 1084" width="16.123" height="12.257" transform="translate(0 0)" fill="url(#linear-gradient-4)"/>
    </g>
  </g>
  <g id="Group_206" data-name="Group 206">
    <g id="Group_182" data-name="Group 182" clip-path="url(#clip-path)">
      <path id="Path_61" data-name="Path 61" d="M556.21,116.216a5.738,5.738,0,0,1-2.367-.478,4.459,4.459,0,0,1-1.8-1.471H551.9a17.727,17.727,0,0,1,.145,2.2v5.461h-2.009V102.7h1.634l.278,1.816h.1a4.678,4.678,0,0,1,1.8-1.574,5.489,5.489,0,0,1,2.361-.485,4.9,4.9,0,0,1,4.075,1.805,9.608,9.608,0,0,1-.023,10.142,4.917,4.917,0,0,1-4.052,1.81m-.291-12.049a3.56,3.56,0,0,0-2.942,1.126,5.8,5.8,0,0,0-.933,3.585v.448a6.638,6.638,0,0,0,.933,4,3.545,3.545,0,0,0,2.99,1.2,3.111,3.111,0,0,0,2.7-1.392,6.606,6.606,0,0,0,.974-3.839,6.358,6.358,0,0,0-.974-3.808,3.208,3.208,0,0,0-2.744-1.326" transform="translate(-385.417 -71.794)" fill="#fbfbfb"/>
    </g>
    <g id="Group_183" data-name="Group 183" clip-path="url(#clip-path)">
      <rect id="Rectangle_1086" data-name="Rectangle 1086" width="2.01" height="18.842" transform="translate(178.947 25.337)" fill="#fbfbfb"/>
    </g>
    <g id="Group_184" data-name="Group 184" clip-path="url(#clip-path)">
      <path id="Path_62" data-name="Path 62" d="M621.808,116.03l-.4-1.889h-.1a5.563,5.563,0,0,1-1.981,1.689,6.018,6.018,0,0,1-2.464.443,4.436,4.436,0,0,1-3.094-1.017,3.71,3.71,0,0,1-1.12-2.894q0-4.02,6.429-4.214l2.254-.073v-.823a3.36,3.36,0,0,0-.673-2.307,2.761,2.761,0,0,0-2.149-.745,8.744,8.744,0,0,0-3.754,1.017l-.618-1.538a9.423,9.423,0,0,1,2.149-.836,9.315,9.315,0,0,1,2.343-.3,5.059,5.059,0,0,1,3.518,1.053,4.4,4.4,0,0,1,1.144,3.379v9.057Zm-4.541-1.416a4.081,4.081,0,0,0,2.949-1.029,3.81,3.81,0,0,0,1.072-2.883v-1.2l-2.011.084a7.311,7.311,0,0,0-3.457.746,2.246,2.246,0,0,0-1.059,2.053,2.068,2.068,0,0,0,.66,1.658,2.737,2.737,0,0,0,1.847.569" transform="translate(-429.295 -71.852)" fill="#fbfbfb"/>
    </g>
    <g id="Group_185" data-name="Group 185" clip-path="url(#clip-path)">
      <path id="Path_63" data-name="Path 63" d="M652.117,103.27h2.155l2.906,7.568a28.908,28.908,0,0,1,1.188,3.743h.1q.158-.619.66-2.114t3.288-9.2h2.156l-5.7,15.112a7.534,7.534,0,0,1-1.98,3.179,4.207,4.207,0,0,1-2.778.938,8.123,8.123,0,0,1-1.817-.205v-1.61a7.042,7.042,0,0,0,1.49.145,3.071,3.071,0,0,0,2.955-2.325l.738-1.889Z" transform="translate(-456.948 -72.363)" fill="#fbfbfb"/>
    </g>
    <g id="Group_186" data-name="Group 186" clip-path="url(#clip-path)">
      <path id="Path_64" data-name="Path 64" d="M422.009,105.05a4.681,4.681,0,0,1,1.97,3.749c0,2.052-1.166,3.026-2.332,3.941a1.952,1.952,0,0,0-.777,1.361,1.522,1.522,0,0,0,.723,1.193l1,.776c1.221,1.027,2.33,1.972,2.33,3.888,0,2.609-2.526,5.246-7.3,5.246-4.026,0-5.968-1.915-5.968-3.971a4,4,0,0,1,2.138-3.387,11.971,11.971,0,0,1,5.3-1.277,2.909,2.909,0,0,1-.833-1.886,2.51,2.51,0,0,1,.277-1.084c-.306.028-.611.055-.889.055a4.388,4.388,0,0,1-4.607-4.357,4.994,4.994,0,0,1,1.776-3.72,7.567,7.567,0,0,1,4.971-1.527h5.717l-1.776,1Zm-1.971,12.326a4.264,4.264,0,0,0-.638-.029,11.094,11.094,0,0,0-2.915.447,3.116,3.116,0,0,0-2.388,2.858c0,1.969,1.916,3.388,4.887,3.388,2.663,0,4.081-1.28,4.081-3,0-1.418-.917-2.164-3.027-3.664m.805-5.275a2.808,2.808,0,0,0,.692-2.027c0-2-1.193-5.107-3.5-5.107a2.593,2.593,0,0,0-1.944.917,3.209,3.209,0,0,0-.611,2.055c0,1.859,1.083,4.941,3.47,4.941a2.844,2.844,0,0,0,1.888-.778" transform="translate(-288.452 -72.91)" fill="#fbfbfb"/>
    </g>
    <g id="Group_187" data-name="Group 187" clip-path="url(#clip-path)">
      <path id="Path_65" data-name="Path 65" d="M372.03,116.011a6.54,6.54,0,0,1-6.762-6.542,6.866,6.866,0,0,1,7.179-6.733,6.478,6.478,0,0,1,6.622,6.539,6.771,6.771,0,0,1-7.039,6.735m3.464-2.245a5.015,5.015,0,0,0,.833-3.078c0-2.439-1.164-7.095-4.6-7.095a3.864,3.864,0,0,0-2.494.943,4.2,4.2,0,0,0-1.276,3.382c0,2.741,1.359,7.258,4.713,7.258a3.541,3.541,0,0,0,2.825-1.411" transform="translate(-255.948 -71.988)" fill="#fbfbfb"/>
    </g>
    <g id="Group_188" data-name="Group 188" clip-path="url(#clip-path)">
      <path id="Path_66" data-name="Path 66" d="M321.836,116.011a6.54,6.54,0,0,1-6.763-6.542,6.867,6.867,0,0,1,7.179-6.733,6.478,6.478,0,0,1,6.623,6.539,6.772,6.772,0,0,1-7.039,6.735m3.464-2.245a5.02,5.02,0,0,0,.832-3.078c0-2.439-1.164-7.095-4.6-7.095a3.866,3.866,0,0,0-2.494.943,4.194,4.194,0,0,0-1.275,3.382c0,2.741,1.358,7.258,4.712,7.258a3.543,3.543,0,0,0,2.826-1.411" transform="translate(-220.776 -71.988)" fill="#fbfbfb"/>
    </g>
    <g id="Group_189" data-name="Group 189" clip-path="url(#clip-path)">
      <path id="Path_67" data-name="Path 67" d="M263.052,100.886l-3.985.92a29.526,29.526,0,0,1-4.6.472c-7.691,0-10.616-5.657-10.616-10.087,0-5.4,4.152-10.419,11.257-10.419a16.056,16.056,0,0,1,4.262.585,10.866,10.866,0,0,1,3.678,1.728l-2.313,2.2-.975.222.7-1.115a7.962,7.962,0,0,0-5.963-2.618c-4.4,0-7.718,3.345-7.718,8.221,0,5.237,3.79,10.169,9.863,10.169a8.3,8.3,0,0,0,3.539-.7V95.982l-4.207.222,2.228-1.2h5.907l-.724.7a.651.651,0,0,0-.279.445c-.029.251-.055,1.06-.055,1.338v3.4Z" transform="translate(-170.872 -57.299)" fill="#fbfbfb"/>
    </g>
    <g id="Group_190" data-name="Group 190" clip-path="url(#clip-path)">
      <path id="Path_68" data-name="Path 68" d="M461.82,98.63c-.92-.084-1.112-.25-1.112-1.339V81.521c.006-.06.009-.121.015-.18.112-.975.391-1.142,1.255-1.645h-3.986l-2.091,1h2.131v.013l0-.01v17.2c0,.556-.11.641-.752,1.476h4.932l1.031-.611c-.473-.058-.948-.085-1.422-.14" transform="translate(-319.457 -55.845)" fill="#fbfbfb"/>
    </g>
    <g id="Group_191" data-name="Group 191" clip-path="url(#clip-path)">
      <path id="Path_69" data-name="Path 69" d="M489.914,115.048c-.3.166-.608.361-.911.5a6.452,6.452,0,0,1-2.687.526,5.915,5.915,0,0,1-3.681-1.08,7.162,7.162,0,0,1-2.821-5.839,6.271,6.271,0,0,1,6.337-6.391,5.379,5.379,0,0,1,2.852.775,4.58,4.58,0,0,1,1.934,2.738l-6.5,2.629-2.131.166c.69,3.514,3.07,5.56,5.7,5.56a7.148,7.148,0,0,0,3.375-.967Zm-2.6-8.247c.525-.193.8-.36.8-.747a2.746,2.746,0,0,0-2.741-2.38c-1.108,0-3.181.858-3.181,3.846,0,.471.055.968.084,1.468Z" transform="translate(-336.213 -72.007)" fill="#fbfbfb"/>
    </g>
    <g id="Group_192" data-name="Group 192" clip-path="url(#clip-path)">
      <path id="Path_70" data-name="Path 70" d="M520.551,102.951v1.826h-.222v-1.826h-.6v-.189h1.43v.189Z" transform="translate(-364.179 -72.007)" fill="#fbfbfb"/>
    </g>
    <g id="Group_193" data-name="Group 193" clip-path="url(#clip-path)">
      <path id="Path_71" data-name="Path 71" d="M527.238,104.777v-1.843h-.011l-.562,1.843h-.173l-.567-1.843h-.007v1.843h-.2v-2.015h.345l.513,1.628h.008l.5-1.628h.35v2.015Z" transform="translate(-368.377 -72.007)" fill="#fbfbfb"/>
    </g>
    <g id="Group_194" data-name="Group 194" clip-path="url(#clip-path)">
      <path id="Path_72" data-name="Path 72" d="M249.5,50.456h-1.385a9.187,9.187,0,0,0-.394-1.618h-2a8.378,8.378,0,0,0-.407,1.618h-1.3q0-.168,1.01-2.768a21.764,21.764,0,0,0,1.01-2.864h1.636a23.861,23.861,0,0,0,.915,2.823,24.817,24.817,0,0,1,.915,2.81m-2-2.444a24.465,24.465,0,0,1-.74-2.415h-.069q0,.169-.765,2.415Z" transform="translate(-170.985 -31.408)" fill="#fcfcfd"/>
    </g>
    <g id="Group_195" data-name="Group 195" clip-path="url(#clip-path)">
      <path id="Path_73" data-name="Path 73" d="M270.116,50.456h-1.069a10.568,10.568,0,0,0-1.19-1.873,10.321,10.321,0,0,1-1.419-2.445h-.069a15.384,15.384,0,0,1,.108,1.713q0,1.069.061,2.6h-1.065q.065-1.34.066-2.946,0-1.579-.066-2.686h1.285a8.159,8.159,0,0,0,1.068,1.83,10.759,10.759,0,0,1,1.307,2.306h.065a16.278,16.278,0,0,1-.1-1.731q0-1.173-.06-2.405h1.082q-.061,1.073-.061,2.686t.061,2.946" transform="translate(-186.021 -31.408)" fill="#fcfcfd"/>
    </g>
    <g id="Group_196" data-name="Group 196" clip-path="url(#clip-path)">
      <path id="Path_74" data-name="Path 74" d="M290.8,47.382a3.191,3.191,0,0,1-.787,2.146,2.751,2.751,0,0,1-2.207.918q-.64,0-1.765-.052.056-1.307.056-2.946,0-1.575-.056-2.687h.757q.186,0,.554-.013c.245-.008.4-.013.48-.013a2.919,2.919,0,0,1,2.265.779,2.7,2.7,0,0,1,.7,1.869m-1.181.186a2.085,2.085,0,0,0-.484-1.4,1.838,1.838,0,0,0-1.48-.569,4.467,4.467,0,0,0-.511.039q.043.865.043,1.808,0,1.034.043,2.051a2.909,2.909,0,0,0,.562.056,1.635,1.635,0,0,0,1.378-.578,2.229,2.229,0,0,0,.448-1.408" transform="translate(-200.431 -31.346)" fill="#fcfcfd"/>
    </g>
    <g id="Group_197" data-name="Group 197" clip-path="url(#clip-path)">
      <path id="Path_75" data-name="Path 75" d="M310.584,50.394H309.3a8.545,8.545,0,0,0-.77-1.891,1.009,1.009,0,0,0-.865-.359c-.168,0-.327,0-.48,0q0,1.112.039,2.245h-1.2q.056-1.306.056-2.946,0-1.575-.056-2.686h.749c.086,0,.267,0,.543-.013s.53-.013.763-.013q1.986,0,1.986,1.359a1.523,1.523,0,0,1-1.134,1.5v.065a1.352,1.352,0,0,1,.766.681,15.2,15.2,0,0,1,.887,2.053m-1.623-3.98q0-.861-1.108-.861a3.8,3.8,0,0,0-.718.061q.048.671.048,1.748c.158.006.293.009.4.009q1.376,0,1.376-.956" transform="translate(-214.435 -31.346)" fill="#fcfcfd"/>
    </g>
    <g id="Group_198" data-name="Group 198" clip-path="url(#clip-path)">
      <path id="Path_76" data-name="Path 76" d="M329.088,47.232a3.106,3.106,0,0,1-.814,2.2,2.636,2.636,0,0,1-2.012.874,2.542,2.542,0,0,1-1.912-.8,2.828,2.828,0,0,1-.77-2.04,3.1,3.1,0,0,1,.813-2.2,2.639,2.639,0,0,1,2.012-.874,2.547,2.547,0,0,1,1.912.8,2.825,2.825,0,0,1,.77,2.042m-1.194.125a2.231,2.231,0,0,0-.463-1.467,1.427,1.427,0,0,0-1.142-.563,1.319,1.319,0,0,0-1.073.567,2.261,2.261,0,0,0-.441,1.432,2.227,2.227,0,0,0,.465,1.464,1.425,1.425,0,0,0,1.14.565,1.318,1.318,0,0,0,1.073-.57,2.263,2.263,0,0,0,.441-1.43" transform="translate(-226.737 -31.104)" fill="#fcfcfd"/>
    </g>
    <g id="Group_199" data-name="Group 199" clip-path="url(#clip-path)">
      <path id="Path_77" data-name="Path 77" d="M347.29,50.456h-1.225q.057-1.34.057-2.946,0-1.579-.057-2.686h1.225q-.057,1.09-.057,2.686,0,1.631.057,2.946" transform="translate(-242.493 -31.408)" fill="#fcfcfd"/>
    </g>
    <g id="Group_200" data-name="Group 200" clip-path="url(#clip-path)">
      <path id="Path_78" data-name="Path 78" d="M359.969,47.382a3.194,3.194,0,0,1-.787,2.146,2.751,2.751,0,0,1-2.207.918q-.641,0-1.765-.052.055-1.307.055-2.946,0-1.575-.055-2.687h.756c.125,0,.309,0,.554-.013s.4-.013.48-.013a2.92,2.92,0,0,1,2.265.779,2.7,2.7,0,0,1,.7,1.869m-1.182.186a2.084,2.084,0,0,0-.484-1.4,1.837,1.837,0,0,0-1.48-.569,4.471,4.471,0,0,0-.511.039q.043.865.043,1.808,0,1.034.044,2.051a2.908,2.908,0,0,0,.562.056,1.635,1.635,0,0,0,1.379-.578,2.229,2.229,0,0,0,.447-1.408" transform="translate(-248.901 -31.346)" fill="#fcfcfd"/>
    </g>
    <g id="Group_201" data-name="Group 201" clip-path="url(#clip-path)">
      <path id="Path_79" data-name="Path 79" d="M386.064,50.456h-1.385a9.163,9.163,0,0,0-.394-1.618h-2a8.369,8.369,0,0,0-.407,1.618h-1.3q0-.168,1.01-2.768a21.75,21.75,0,0,0,1.01-2.864h1.635a23.854,23.854,0,0,0,.915,2.823,24.781,24.781,0,0,1,.916,2.81m-2-2.444a24.508,24.508,0,0,1-.74-2.415h-.069a25.265,25.265,0,0,1-.765,2.415Z" transform="translate(-266.676 -31.408)" fill="#fcfcfd"/>
    </g>
    <g id="Group_202" data-name="Group 202" clip-path="url(#clip-path)">
      <path id="Path_80" data-name="Path 80" d="M406.148,46.237a1.687,1.687,0,0,1-.768,1.528,3.419,3.419,0,0,1-1.884.493c-.136,0-.232,0-.29-.009q0,.813.048,2.146h-1.216q.056-1.249.056-2.946,0-1.557-.056-2.687h.753q.16,0,.614-.013t.787-.013a2.475,2.475,0,0,1,1.389.372,1.258,1.258,0,0,1,.567,1.129m-1.116.238q0-.926-1.229-.926a3.438,3.438,0,0,0-.649.065q.047.817.047,1.852.108.009.251.009,1.58,0,1.579-1" transform="translate(-281.714 -31.346)" fill="#fcfcfd"/>
    </g>
    <g id="Group_203" data-name="Group 203" clip-path="url(#clip-path)">
      <path id="Path_81" data-name="Path 81" d="M423.487,46.237a1.688,1.688,0,0,1-.768,1.528,3.421,3.421,0,0,1-1.885.493c-.135,0-.232,0-.29-.009q0,.813.048,2.146h-1.216q.056-1.249.057-2.946,0-1.557-.057-2.687h.753q.16,0,.614-.013t.787-.013a2.475,2.475,0,0,1,1.389.372,1.259,1.259,0,0,1,.567,1.129m-1.116.238q0-.926-1.229-.926a3.445,3.445,0,0,0-.649.065q.048.817.048,1.852.108.009.251.009,1.579,0,1.579-1" transform="translate(-293.863 -31.346)" fill="#fcfcfd"/>
    </g>
    <g id="Group_204" data-name="Group 204" clip-path="url(#clip-path)">
      <path id="Path_82" data-name="Path 82" d="M448.564,47.232a3.1,3.1,0,0,1-.814,2.2,2.635,2.635,0,0,1-2.011.874,2.543,2.543,0,0,1-1.913-.8,2.827,2.827,0,0,1-.77-2.04,3.1,3.1,0,0,1,.813-2.2,2.64,2.64,0,0,1,2.012-.874,2.546,2.546,0,0,1,1.913.8,2.825,2.825,0,0,1,.77,2.042m-1.194.125a2.229,2.229,0,0,0-.463-1.467,1.426,1.426,0,0,0-1.142-.563,1.318,1.318,0,0,0-1.073.567,2.258,2.258,0,0,0-.441,1.432,2.225,2.225,0,0,0,.465,1.464,1.424,1.424,0,0,0,1.14.565,1.317,1.317,0,0,0,1.073-.57,2.259,2.259,0,0,0,.441-1.43" transform="translate(-310.456 -31.104)" fill="#fcfcfd"/>
    </g>
    <g id="Group_205" data-name="Group 205" clip-path="url(#clip-path)">
      <path id="Path_83" data-name="Path 83" d="M470.185,50.456h-1.068a10.577,10.577,0,0,0-1.19-1.873,10.331,10.331,0,0,1-1.419-2.445h-.069a15.249,15.249,0,0,1,.108,1.713q0,1.069.061,2.6h-1.065q.065-1.34.065-2.946,0-1.579-.065-2.686h1.285a8.171,8.171,0,0,0,1.069,1.83,10.763,10.763,0,0,1,1.306,2.306h.065a16.2,16.2,0,0,1-.1-1.731q0-1.173-.06-2.405h1.082q-.061,1.073-.061,2.686t.061,2.946" transform="translate(-326.212 -31.408)" fill="#fcfcfd"/>
    </g>
  </g>
</svg>
