<svg xmlns="http://www.w3.org/2000/svg" width="26.7" height="26.361" viewBox="0 0 26.7 26.361">
  <g id="auction" transform="translate(-6 -6.305)">
    <path id="Path_1338" data-name="Path 1338" d="M15.216,15.283a1.7,1.7,0,0,0-1.2,2.9l3.889,3.889a1.695,1.695,0,0,0,2.725-1.938l1.809-1.809L31.519,28a2.6,2.6,0,0,0,1.866.823h.041A2.61,2.61,0,0,0,35.209,24.3L25.54,15.226l1.81-1.81a1.7,1.7,0,0,0,1.938-2.725L25.4,6.8a1.666,1.666,0,0,0-1.181-.5,1.692,1.692,0,0,0-1.544,2.433l-6.717,6.717A1.658,1.658,0,0,0,15.216,15.283ZM34.45,25.117a1.5,1.5,0,0,1,.036,2.152,1.54,1.54,0,0,1-1.084.439,1.492,1.492,0,0,1-1.073-.473l-9.1-9.695,1.525-1.526,9.695,9.1ZM19.524,21.285a.6.6,0,0,1-.829,0L14.8,17.4a.586.586,0,0,1,.414-1h.013a.566.566,0,0,1,.4.171l3.889,3.889A.587.587,0,0,1,19.524,21.285Zm4.259-13.7a.608.608,0,0,1,.428-.171.566.566,0,0,1,.4.171L28.5,11.478a.587.587,0,0,1,0,.829.6.6,0,0,1-.829,0h0l-3.89-3.89h0A.587.587,0,0,1,23.783,7.589ZM23.388,9.6l3.1,3.1-6.575,6.575-3.1-3.1Z" transform="translate(-3.338 0)" fill="#fff"/>
    <path id="Path_1339" data-name="Path 1339" d="M9.577,42.889V43.94H9.51a1.938,1.938,0,0,0-1.936,1.936v1.052H6.556a.556.556,0,1,0,0,1.112H23.295a.556.556,0,1,0,0-1.112H22.282V45.876A1.941,1.941,0,0,0,20.34,43.94h-.067V42.889a1.941,1.941,0,0,0-1.941-1.936H11.518A1.941,1.941,0,0,0,9.577,42.889Zm11.592,2.987v1.051H8.687V45.876a.824.824,0,0,1,.823-.823H20.34A.827.827,0,0,1,21.169,45.876Zm-10.48-2.987a.827.827,0,0,1,.829-.823h6.814a.827.827,0,0,1,.829.823V43.94H10.689Z" transform="translate(0 -15.375)" fill="#fff"/>
  </g>
</svg>
