<svg xmlns="http://www.w3.org/2000/svg" width="26.121" height="23" viewBox="0 0 26.121 23">
  <g id="Group_1536" data-name="Group 1536" transform="translate(-1334 -450)">
    <path id="Path_1402" data-name="Path 1402" d="M34,18a3,3,0,0,0-3-3H27a1,1,0,0,0-1,1V30a1,1,0,0,0,1,1h4a3,3,0,0,0,3-3Zm-2,0V28a1,1,0,0,1-1,1H28V17h3A1,1,0,0,1,32,18Z" transform="translate(1308 442)" fill="#272727" fill-rule="evenodd"/>
    <path id="Path_1404" data-name="Path 1404" d="M32,28a1,1,0,0,0,.445.832l.985.656A8.995,8.995,0,0,0,38.422,31h7.3a5,5,0,0,0,4.9-4.019l1.4-7A5,5,0,0,0,47.121,14H45V12.546A4.546,4.546,0,0,0,40.454,8h0a1.628,1.628,0,0,0-1.545,1.113L37.519,13.28a3,3,0,0,1-1.3,1.624l-3.731,2.239A1,1,0,0,0,32,18V28Zm8.716-17.986A2.546,2.546,0,0,1,43,12.546V15a1,1,0,0,0,1,1h3.121a3,3,0,0,1,2.942,3.588l-1.4,7A3,3,0,0,1,45.721,29h-7.3a7,7,0,0,1-3.883-1.176L34,27.465v-8.9l3.246-1.947a5,5,0,0,0,2.171-2.707l1.3-3.9Z" transform="translate(1308 442)" fill="#272727" fill-rule="evenodd"/>
  </g>
</svg>
