<svg xmlns="http://www.w3.org/2000/svg" width="26.121" height="23" viewBox="0 0 26.121 23">
  <g id="Group_1538" data-name="Group 1538" transform="translate(-1319.879 -505)">
    <path id="Path_1403" data-name="Path 1403" d="M30,46a3,3,0,0,0,3,3h4a1,1,0,0,0,1-1V34a1,1,0,0,0-1-1H33a3,3,0,0,0-3,3Zm2,0V36a1,1,0,0,1,1-1h3V47H33A1,1,0,0,1,32,46Z" transform="translate(1308 472)" fill="#272727" fill-rule="evenodd"/>
    <path id="Path_1405" data-name="Path 1405" d="M32,36a1,1,0,0,0-.445-.832l-.985-.656A8.995,8.995,0,0,0,25.578,33h-7.3a5,5,0,0,0-4.9,4.019l-1.4,7A5,5,0,0,0,16.879,50H19v1.43A4.572,4.572,0,0,0,23.57,56H24a1,1,0,0,0,.949-.684l1.532-4.6a3,3,0,0,1,1.3-1.624l3.731-2.239A1,1,0,0,0,32,46V36ZM23.285,53.984A2.571,2.571,0,0,1,21,51.43V49a1,1,0,0,0-1-1H16.879a3,3,0,0,1-2.942-3.588l1.4-7A3,3,0,0,1,18.279,35h7.3a7,7,0,0,1,3.883,1.176l.539.359v8.9l-3.246,1.947a5,5,0,0,0-2.171,2.707l-1.3,3.9Z" transform="translate(1308 472)" fill="#272727" fill-rule="evenodd"/>
  </g>
</svg>
