<svg xmlns="http://www.w3.org/2000/svg" width="33.393" height="32.667" viewBox="0 0 33.393 32.667"><defs><style>.a{fill:#4e4e4e;}</style></defs><g transform="translate(-4 -5)"><g transform="translate(4 5)"><path class="a" d="M13.085,957.362A1.089,1.089,0,0,0,12,958.451v4.185a3.267,3.267,0,1,0,2.178,0v-4.185A1.089,1.089,0,0,0,13.085,957.362Zm15.244,0a1.089,1.089,0,0,0-1.089,1.089v4.185a3.267,3.267,0,1,0,2.178,0v-4.185A1.089,1.089,0,0,0,28.33,957.362ZM8,959.54a4.02,4.02,0,0,0-4,4v22.481a4.02,4.02,0,0,0,4,4H33.389a4.02,4.02,0,0,0,4-4V963.544a4.02,4.02,0,0,0-4-4H31.222a1.089,1.089,0,1,0,0,2.178h2.166a1.8,1.8,0,0,1,1.826,1.826V969.7H6.178v-6.159A1.8,1.8,0,0,1,8,961.717H10.17a1.089,1.089,0,1,0,0-2.178Zm7.974,0a1.089,1.089,0,1,0,0,2.178h9.437a1.089,1.089,0,1,0,0-2.178Zm-2.892,5.081A1.089,1.089,0,1,1,12,965.71,1.073,1.073,0,0,1,13.085,964.621Zm15.244,0a1.089,1.089,0,1,1-1.089,1.089A1.073,1.073,0,0,1,28.33,964.621ZM6.178,971.881H35.215v14.144a1.8,1.8,0,0,1-1.826,1.826H8a1.8,1.8,0,0,1-1.826-1.826Z" transform="translate(-4 -957.362)"/></g></g></svg>