<?xml version="1.0" encoding="utf-8"?>
<!-- Generator: Adobe Illustrator 17.0.0, SVG Export Plug-In . SVG Version: 6.00 Build 0)  -->
<!DOCTYPE svg PUBLIC "-//W3C//DTD SVG 1.1//EN" "http://www.w3.org/Graphics/SVG/1.1/DTD/svg11.dtd">
<svg version="1.1" id="Layer_1" xmlns="http://www.w3.org/2000/svg" xmlns:xlink="http://www.w3.org/1999/xlink" x="0px" y="0px"
	 width="60px" height="60px" viewBox="6 6 60 60" enable-background="new 6 6 60 60" xml:space="preserve">
<g>
	<g>
		<path fill="#272727" d="M63.879,59.263c1.167,1.167,1.167,3.076,0,4.243l-0.373,0.373c-1.167,1.167-3.076,1.167-4.243,0
			L8.121,12.737c-1.167-1.167-1.167-3.076,0-4.243l0.373-0.373c1.167-1.167,3.076-1.167,4.243,0L63.879,59.263z"/>
	</g>
	<g>
		<path fill="#272727" d="M12.737,63.879c-1.167,1.167-3.076,1.167-4.243,0l-0.373-0.373c-1.167-1.167-1.167-3.076,0-4.243
			L59.263,8.121c1.167-1.167,3.076-1.167,4.243,0l0.373,0.373c1.167,1.167,1.167,3.076,0,4.243L12.737,63.879z"/>
	</g>
</g>
</svg>
