<?xml version="1.0" encoding="utf-8"?>
<!-- Generator: Adobe Illustrator 17.0.0, SVG Export Plug-In . SVG Version: 6.00 Build 0)  -->
<!DOCTYPE svg PUBLIC "-//W3C//DTD SVG 1.1//EN" "http://www.w3.org/Graphics/SVG/1.1/DTD/svg11.dtd">
<svg version="1.1" id="Layer_1" xmlns="http://www.w3.org/2000/svg" xmlns:xlink="http://www.w3.org/1999/xlink" x="0px" y="0px"
	 width="60px" height="60px" viewBox="0 0 60 60" enable-background="new 0 0 60 60" xml:space="preserve">
<rect opacity="0" fill="#004C2E" width="60.011" height="59.927"/>
<g>
	<g>
		<path fill="#FFFFFF" d="M58.975,54.168c1.215,1.215,1.215,3.203,0,4.418l-0.388,0.388c-1.215,1.215-3.203,1.215-4.418,0
			L0.911,5.718c-1.215-1.215-1.215-3.203,0-4.418L1.3,0.911c1.215-1.215,3.203-1.215,4.418,0L58.975,54.168z"/>
	</g>
	<g>
		<path fill="#FFFFFF" d="M5.718,58.975c-1.215,1.215-3.203,1.215-4.418,0l-0.388-0.388c-1.215-1.215-1.215-3.203,0-4.418
			L54.168,0.911c1.215-1.215,3.203-1.215,4.418,0L58.975,1.3c1.215,1.215,1.215,3.203,0,4.418L5.718,58.975z"/>
	</g>
</g>
</svg>
