<?xml version="1.0" encoding="utf-8"?>
<!-- Generator: Adobe Illustrator 17.0.0, SVG Export Plug-In . SVG Version: 6.00 Build 0)  -->
<!DOCTYPE svg PUBLIC "-//W3C//DTD SVG 1.1//EN" "http://www.w3.org/Graphics/SVG/1.1/DTD/svg11.dtd">
<svg version="1.1" id="Layer_1" xmlns="http://www.w3.org/2000/svg" xmlns:xlink="http://www.w3.org/1999/xlink" x="0px" y="0px"
	 width="30px" height="30px" viewBox="0 0 30 30" enable-background="new 0 0 30 30" xml:space="preserve">
<rect fill="#200D31" fill-opacity="0" width="30" height="30"/>
<g>
	<g>
		<path fill="#FFFFFF" d="M16.405,19.538c0.778,0.778,0.778,2.051,0,2.828l-0.112,0.112c-0.778,0.778-2.051,0.778-2.828,0
			L1.449,10.462c-0.778-0.778-0.778-2.051,0-2.828l0.112-0.112c0.778-0.778,2.051-0.778,2.828,0L16.405,19.538z"/>
	</g>
	<g>
		<path fill="#FFFFFF" d="M16.535,22.478c-0.778,0.778-2.051,0.778-2.828,0l-0.112-0.112c-0.778-0.778-0.778-2.051,0-2.828
			L25.611,7.522c0.778-0.778,2.051-0.778,2.828,0l0.112,0.112c0.778,0.778,0.778,2.051,0,2.828L16.535,22.478z"/>
	</g>
</g>
</svg>
