<svg xmlns="http://www.w3.org/2000/svg" width="29.565" height="29.5" viewBox="0 0 29.565 29.5">
  <g id="noun_Email_4078274" transform="translate(-5 -51)">
    <g id="Group_1017" data-name="Group 1017" transform="translate(5 51)">
      <path id="Path_237" data-name="Path 237" d="M19.782,5A14.8,14.8,0,0,1,34.564,19.782v.02c0,.011,0,.023,0,.034v-.054q0,.038,0,.076c0,.005,0,.011,0,.016-.238,3.561-2.808,6.459-5.725,6.459a4.6,4.6,0,0,1-3.371-1.512,5.6,5.6,0,0,1-.56-.7,6.723,6.723,0,1,1-1.1-9.744,1.361,1.361,0,0,1,2.718.093v5.314h0q0,.247-.018.49a4.011,4.011,0,0,0,.945,2.693,1.906,1.906,0,0,0,1.383.65c1.462,0,2.866-1.826,3.009-3.914v.084a12.066,12.066,0,1,0-4.782,9.55,1.362,1.362,0,1,1,1.646,2.17A14.761,14.761,0,1,1,19.782,5Zm0,10.762a3.99,3.99,0,1,0,4,4.372c0-.14.006-.282.015-.424v.072A4.024,4.024,0,0,0,19.782,15.762Z" transform="translate(-5 -5)" fill="#fff"/>
    </g>
  </g>
</svg>
