<svg xmlns="http://www.w3.org/2000/svg" width="74.118" height="78.467" viewBox="0 0 74.118 78.467"><defs><style>.a{fill:#4e4e4e;}</style></defs><g transform="translate(-2.971 -0.025)"><g transform="translate(2.971 0.025)"><path class="a" d="M84.46,45.142h48.584a2.361,2.361,0,0,0,2.36-2.36V11.3a2.361,2.361,0,0,0-2.36-2.36H120.983L110.116.5a2.21,2.21,0,0,0-2.728,0L96.522,8.941H84.46A2.361,2.361,0,0,0,82.1,11.3v31.48A2.361,2.361,0,0,0,84.46,45.142Zm47.266-30.882,1.395-1.395V41.157l-1.395-1.349ZM108.752,2.335l8.475,6.59H100.277Zm22.729,8.9-1.395,1.395H87.4L86.008,11.24ZM112.891,39.165H89.135l11.786-17.87a.087.087,0,0,1,.153,0Zm8.629-14.606a2.387,2.387,0,0,0-3.985,0l-5.778,8.751-8.8-13.288a2.387,2.387,0,0,0-3.985,0L88.062,36.574V14.918H129.4V36.482Zm6.912,14.606H115.649l-2.5-3.77h0l6.314-9.564a.087.087,0,0,1,.153,0ZM87.4,41.463h42.714l1.441,1.395h-45.6Zm-3-28.6,1.395,1.395V39.824L84.4,41.172Z" transform="translate(-71.693 -0.025)"/><path class="a" d="M88.318,281.478a3.862,3.862,0,1,0-6.606,2.713,3.262,3.262,0,0,0-.521,1.778v1.808c-8.046,3.586-18.744,5.594-29.932,5.594-11.219,0-21.825-1.977-29.917-5.594v-1.824a3.262,3.262,0,0,0-.521-1.778,3.862,3.862,0,1,0-5.5.015,3.276,3.276,0,0,0-.536,1.778V311.44a2.087,2.087,0,0,0,2.084,2.084h2.376a2.087,2.087,0,0,0,2.084-2.084V290.29c8.246,3.479,18.79,5.395,29.917,5.395,11.081,0,21.717-1.946,29.917-5.395v21.15a2.087,2.087,0,0,0,2.084,2.084h2.376A2.087,2.087,0,0,0,87.7,311.44V285.968a3.262,3.262,0,0,0-.521-1.778A3.811,3.811,0,0,0,88.318,281.478ZM19.043,311.226H17.081V285.968a1.029,1.029,0,0,1,.276-.69,4.086,4.086,0,0,0,1.41,0,.96.96,0,0,1,.276.69Zm-.4-28.292a.285.285,0,0,1-.107.031,1.623,1.623,0,0,1-.475.077,1.445,1.445,0,0,1-.46-.077.284.284,0,0,0-.107-.031,1.563,1.563,0,1,1,2.13-1.456A1.535,1.535,0,0,1,18.645,282.934Zm64.83,28.292V285.968a1.029,1.029,0,0,1,.276-.69,4.086,4.086,0,0,0,1.41,0,.96.96,0,0,1,.276.69v25.258Zm1.548-28.292a.285.285,0,0,1-.107.031,1.623,1.623,0,0,1-.475.077,1.445,1.445,0,0,1-.46-.077.284.284,0,0,0-.107-.031A1.563,1.563,0,1,1,86,281.478,1.535,1.535,0,0,1,85.023,282.934Z" transform="translate(-14.2 -235.058)"/></g></g></svg>