<svg xmlns="http://www.w3.org/2000/svg" width="49" height="49" viewBox="0 0 49 49"><defs><style>.a{fill:#efefef;}.b{fill:#2a2a2a;fill-rule:evenodd;}</style></defs><g transform="translate(-501 -1839)"><g transform="translate(61)"><circle class="a" cx="24.5" cy="24.5" r="24.5" transform="translate(440 1839)"/></g><g transform="translate(483.333 1821.333)"><g transform="translate(34 34)"><path class="b" d="M43.6,39.3l2.742-2.742c.295-.295.2-.538-.221-.539l-2.514,0a1.009,1.009,0,0,1,0-2.018l5.782.026a.9.9,0,0,1,.893.893l.048,5.8a1.009,1.009,0,0,1-2.018,0l0-2.513c0-.421-.242-.518-.539-.221l-7.028,7.028-.016.016-2.742,2.742c-.295.295-.2.538.221.539l2.514,0a1.009,1.009,0,0,1,0,2.018l-5.782-.026a.9.9,0,0,1-.893-.893L34,43.61a1.009,1.009,0,0,1,2.018,0l0,2.513c0,.421.242.518.539.221l7.028-7.028L43.6,39.3Z" transform="translate(-34 -34)"/></g></g></g></svg>