<svg xmlns="http://www.w3.org/2000/svg" width="29.496" height="19.342" viewBox="0 0 29.496 19.342">
  <g id="noun_Eye_3205168" transform="translate(-1.004 -8.92)">
    <g id="Layer_8" data-name="Layer 8" transform="translate(1.004 8.92)">
      <path id="Path_1365" data-name="Path 1365" d="M15.542,28.262c-5.07,0-9.919-3.15-14.416-9.367a.641.641,0,0,1-.014-.731c.245-.369,6.106-9.04,14.557-9.239,5.178-.137,10.122,2.978,14.707,9.215a.641.641,0,0,1,.02.731c-.246.375-6.108,9.19-14.565,9.389C15.734,28.26,15.638,28.262,15.542,28.262ZM2.436,18.513c4.239,5.722,8.742,8.571,13.358,8.463,6.853-.158,12.085-6.805,13.273-8.447C24.828,12.9,20.321,10.11,15.7,10.206,8.857,10.364,3.63,16.892,2.436,18.513Z" transform="translate(-1.004 -8.92)" fill="#272727"/>
      <path id="Path_1366" data-name="Path 1366" d="M21.052,26.323a5.271,5.271,0,1,1,5.271-5.271A5.271,5.271,0,0,1,21.052,26.323Zm0-9.259a3.988,3.988,0,1,0,3.988,3.988,3.988,3.988,0,0,0-3.988-3.988Z" transform="translate(-6.304 -11.381)" fill="#272727"/>
    </g>
  </g>
</svg>
