<svg xmlns="http://www.w3.org/2000/svg" width="69" height="69" viewBox="0 0 69 69">
  <g id="Group_1375" data-name="Group 1375" transform="translate(-1593 -9917)">
    <path id="Path_264" data-name="Path 264" d="M34.5,0A34.5,34.5,0,1,1,0,34.5,34.5,34.5,0,0,1,34.5,0Z" transform="translate(1593 9917)" fill="#ffd018"/>
    <g id="Component_9" data-name="Component 9" transform="translate(1609.798 9933.998)">
      <rect id="Rectangle_392" data-name="Rectangle 392" width="35.404" height="34.599" transform="translate(0 0.403)" fill="none"/>
      <path id="Path_1" data-name="Path 1" d="M91.858,34.99V19.05H97.3l.778-6.22h-6.22V8.942c0-1.749.583-3.11,3.11-3.11h3.3V.194C97.495.194,95.551,0,93.413,0c-4.665,0-7.97,2.916-7.97,8.164V12.83H80v6.22h5.443V34.99Z" transform="translate(-71.253 0.002)" fill="#272727" fill-rule="evenodd"/>
    </g>
  </g>
</svg>
