<svg xmlns="http://www.w3.org/2000/svg" width="23.604" height="21.626" viewBox="0 0 23.604 21.626">
  <g id="gallery" transform="translate(-27.8 -29.7)">
    <path id="Path_1340" data-name="Path 1340" d="M33.926,29.7H28.333a.5.5,0,0,0-.533.533v5.54a.5.5,0,0,0,.533.533h5.54a.5.5,0,0,0,.533-.533v-5.54A.464.464,0,0,0,33.926,29.7Zm-.533,5.54H28.919V30.765h4.474Z" transform="translate(0 0)" fill="#fff"/>
    <path id="Path_1341" data-name="Path 1341" d="M49.872,29.7h-5.54a.5.5,0,0,0-.533.533v5.54a.5.5,0,0,0,.533.533h5.54a.5.5,0,0,0,.533-.533v-5.54A.5.5,0,0,0,49.872,29.7Zm-.533,5.54H44.865V30.765H49.34Z" transform="translate(-7.477 0)" fill="#fff"/>
    <path id="Path_1342" data-name="Path 1342" d="M65.826,29.7H60.233a.5.5,0,0,0-.533.533v5.54a.5.5,0,0,0,.533.533h5.54a.5.5,0,0,0,.533-.533v-5.54A.464.464,0,0,0,65.826,29.7Zm-.533,5.54H60.819V30.765h4.474Z" transform="translate(-14.908 0)" fill="#fff"/>
    <path id="Path_1343" data-name="Path 1343" d="M33.926,43.8H28.333a.5.5,0,0,0-.533.533v5.54a.5.5,0,0,0,.533.533h5.54a.5.5,0,0,0,.533-.533v-5.54A.464.464,0,0,0,33.926,43.8Zm-.533,5.54H28.919V44.865h4.474Z" transform="translate(0 -6.59)" fill="#fff"/>
    <path id="Path_1344" data-name="Path 1344" d="M49.872,43.8h-5.54a.5.5,0,0,0-.533.533v5.54a.5.5,0,0,0,.533.533h5.54a.5.5,0,0,0,.533-.533v-5.54A.5.5,0,0,0,49.872,43.8Zm-.533,5.54H44.865V44.865H49.34Z" transform="translate(-7.477 -6.59)" fill="#fff"/>
    <path id="Path_1345" data-name="Path 1345" d="M65.826,43.8H60.233a.5.5,0,0,0-.533.533v5.54a.5.5,0,0,0,.533.533h5.54a.5.5,0,0,0,.533-.533v-5.54A.464.464,0,0,0,65.826,43.8Zm-.533,5.54H60.819V44.865h4.474Z" transform="translate(-14.908 -6.59)" fill="#fff"/>
    <path id="Path_1346" data-name="Path 1346" d="M33.926,57.9H28.333a.5.5,0,0,0-.533.533v5.54a.5.5,0,0,0,.533.533h5.54a.5.5,0,0,0,.533-.533v-5.54A.49.49,0,0,0,33.926,57.9Zm-.533,5.54H28.919V58.965h4.474Z" transform="translate(0 -13.179)" fill="#fff"/>
    <path id="Path_1347" data-name="Path 1347" d="M49.872,57.9h-5.54a.5.5,0,0,0-.533.533v5.54a.5.5,0,0,0,.533.533h5.54a.5.5,0,0,0,.533-.533v-5.54A.534.534,0,0,0,49.872,57.9Zm-.533,5.54H44.865V58.965H49.34Z" transform="translate(-7.477 -13.179)" fill="#fff"/>
    <path id="Path_1348" data-name="Path 1348" d="M65.826,57.9H60.233a.5.5,0,0,0-.533.533v5.54a.5.5,0,0,0,.533.533h5.54a.5.5,0,0,0,.533-.533v-5.54A.49.49,0,0,0,65.826,57.9Zm-.533,5.54H60.819V58.965h4.474Z" transform="translate(-14.908 -13.179)" fill="#fff"/>
  </g>
</svg>
