<?xml version="1.0" encoding="utf-8"?>
<!-- Generator: Adobe Illustrator 17.0.0, SVG Export Plug-In . SVG Version: 6.00 Build 0)  -->
<!DOCTYPE svg PUBLIC "-//W3C//DTD SVG 1.1//EN" "http://www.w3.org/Graphics/SVG/1.1/DTD/svg11.dtd">
<svg version="1.1" id="Layer_1" xmlns="http://www.w3.org/2000/svg" xmlns:xlink="http://www.w3.org/1999/xlink" x="0px" y="0px"
	 width="40px" height="40px" viewBox="0 0 40 40" enable-background="new 0 0 40 40" xml:space="preserve">
<path fill="#010101" d="M25.556,2.222c-0.614,0-1.111,0.497-1.111,1.111v11.111c0,0.614,0.497,1.111,1.111,1.111h11.111
	c0.614,0,1.111-0.497,1.111-1.111V3.333c0-0.614-0.497-1.111-1.111-1.111H25.556z M25.556,0h11.111C38.508,0,40,1.492,40,3.333
	v11.111c0,1.841-1.492,3.333-3.333,3.333H25.556c-1.841,0-3.333-1.492-3.333-3.333V3.333C22.222,1.492,23.715,0,25.556,0z
	 M3.333,2.222c-0.614,0-1.111,0.497-1.111,1.111v11.111c0,0.614,0.497,1.111,1.111,1.111h11.111c0.614,0,1.111-0.497,1.111-1.111
	V3.333c0-0.614-0.497-1.111-1.111-1.111H3.333z M3.333,0h11.111c1.841,0,3.333,1.492,3.333,3.333v11.111
	c0,1.841-1.492,3.333-3.333,3.333H3.333C1.492,17.778,0,16.285,0,14.444V3.333C0,1.492,1.492,0,3.333,0z M25.556,24.444
	c-0.614,0-1.111,0.497-1.111,1.111v11.111c0,0.614,0.497,1.111,1.111,1.111h11.111c0.614,0,1.111-0.497,1.111-1.111V25.556
	c0-0.614-0.497-1.111-1.111-1.111H25.556z M25.556,22.222h11.111c1.841,0,3.333,1.492,3.333,3.333v11.111
	C40,38.508,38.508,40,36.667,40H25.556c-1.841,0-3.333-1.492-3.333-3.333V25.556C22.222,23.715,23.715,22.222,25.556,22.222z
	 M3.333,24.444c-0.614,0-1.111,0.497-1.111,1.111v11.111c0,0.614,0.497,1.111,1.111,1.111h11.111c0.614,0,1.111-0.497,1.111-1.111
	V25.556c0-0.614-0.497-1.111-1.111-1.111H3.333z M3.333,22.222h11.111c1.841,0,3.333,1.492,3.333,3.333v11.111
	c0,1.841-1.492,3.333-3.333,3.333H3.333C1.492,40,0,38.508,0,36.667V25.556C0,23.715,1.492,22.222,3.333,22.222z"/>
</svg>
