<svg xmlns="http://www.w3.org/2000/svg" width="88.369" height="90.5" viewBox="0 0 88.369 90.5"><defs><style>.a{fill:#272727;}</style></defs><g transform="translate(-5.815 -4.75)"><rect class="a" width="37.942" height="3" transform="translate(32.315 22.749)"/><rect class="a" width="37.942" height="3" transform="translate(32.315 13.749)"/><path class="a" d="M72.054,39.365a9.92,9.92,0,1,0,9.919,9.92A9.93,9.93,0,0,0,72.054,39.365Zm0,16.839a6.92,6.92,0,1,1,6.919-6.919A6.927,6.927,0,0,1,72.054,56.2Z"/><path class="a" d="M79.315,86.676c1.754-3.016,3.641-6.547,5.455-10.221,2.831-5.732,9.414-19.854,9.414-27.17a22.166,22.166,0,0,0-14.869-20.9V4.75h-57V43.205a8.087,8.087,0,0,0-3.143-.656,8.871,8.871,0,0,0-8.614,9.089,9.521,9.521,0,0,0,.641,3.444A12.293,12.293,0,0,0,5.815,65.173a12.606,12.606,0,0,0,11.5,12.334V86.75h-10v3H67.055c3.254,5.061,4.305,5.5,5.234,5.5s1.982-.439,5.168-5.5h13.33v-3H79.315Zm-54-78.926h51V27.569a22.058,22.058,0,0,0-17.741,4.18H32.295v3H55.386a22.136,22.136,0,0,0-3.75,6H32.295v3H50.622a22.124,22.124,0,0,0-.7,5.536c0,.146.019.313.024.464H32.295v3H50.306a46.805,46.805,0,0,0,1.629,6H32.315v3H53c.769,2.039,1.613,4.073,2.459,6H32.314v19h-7v-79Zm10,79v-16h14v16Zm17,0v-16h4.491c1.055,2.277,2.035,4.268,2.77,5.718C61.448,80.162,63.4,83.716,65.2,86.75ZM8.815,65.173a9.368,9.368,0,0,1,5.03-8.2l1.37-.736L14.429,54.9a6.457,6.457,0,0,1-.872-3.259,5.873,5.873,0,0,1,5.614-6.089A5.275,5.275,0,0,1,22.314,46.6V73.9a10.146,10.146,0,0,1-3.618.68A9.667,9.667,0,0,1,8.815,65.173Zm11.5,12.3a13.278,13.278,0,0,0,2-.4v9.683h-2ZM72.284,91.934c-4.023-4.2-19.363-32.446-19.363-42.648a19.132,19.132,0,1,1,38.264,0C91.185,59.51,76.218,87.727,72.284,91.934Z"/></g></svg>