<svg xmlns="http://www.w3.org/2000/svg" width="25.306" height="23.605" viewBox="0 0 25.306 23.605">
  <g id="Heart" transform="translate(-36.625 -37.525)">
    <path id="Path_45" data-name="Path 45" d="M17.656,10.27A7.342,7.342,0,0,0,5.963,11.779a7.449,7.449,0,0,0-.811,5.156c.464,2.254,2.176,4.738,4.568,7.021l7.489,7.489a.633.633,0,0,0,.895,0l7.489-7.489c2.066-1.982,3.943-4.377,4.532-6.853A7.374,7.374,0,0,0,17.656,10.27Zm10.8,7.824c-1.484,3.122-2.763,3.9-10.8,12.008L11.244,23.69c-1.756-1.738-5.735-5.4-4.859-9.447A6.073,6.073,0,0,1,12.321,9.3a6.456,6.456,0,0,1,4.3,1.747c.243.2.447.458.693.654a.637.637,0,0,0,.8-.1,7,7,0,0,1,4.035-2.24,6.025,6.025,0,0,1,6.485,3.877A6.221,6.221,0,0,1,28.455,18.094Z" transform="translate(31.625 29.5)" fill="#fff"/>
  </g>
</svg>
