<svg xmlns="http://www.w3.org/2000/svg" width="56" height="56" viewBox="0 0 56 56"><defs><style>.a{fill:#efefef;}.b{fill:#272727;}</style></defs><g transform="translate(-1576 -1118)"><circle class="a" cx="28" cy="28" r="28" transform="translate(1576 1118)"/><g transform="translate(1585.287 1128.011)"><g transform="translate(1.724 1)"><path class="b" d="M33.845,11.193H28.1V2.133A1.132,1.132,0,0,0,26.969,1H9.009A1.132,1.132,0,0,0,7.876,2.133v9.061H2.133A1.132,1.132,0,0,0,1,12.326V26.97A1.132,1.132,0,0,0,2.133,28.1H7.875v5.743a1.132,1.132,0,0,0,1.133,1.133H26.97A1.132,1.132,0,0,0,28.1,33.845V28.1h5.742a1.132,1.132,0,0,0,1.133-1.133V12.326A1.132,1.132,0,0,0,33.845,11.193Zm-23.7-7.928H25.836v7.928H10.141Zm15.7,29.447H10.14V21.126h15.7V32.713Zm6.875-6.875H28.1V21.123h.322a1.133,1.133,0,1,0,0-2.265H7.553a1.133,1.133,0,1,0,0,2.265h.322v4.714H3.265V13.458H32.713Z" transform="translate(-1 -1)"/><path class="b" d="M26.174,15.177H27.36a1.133,1.133,0,1,0,0-2.265H26.174a1.133,1.133,0,1,0,0,2.265Z" transform="translate(2.188 0.579)"/><path class="b" d="M20.606,20.671H12.6a1.133,1.133,0,1,0,0,2.265h8.009a1.133,1.133,0,1,0,0-2.265Z" transform="translate(0.387 1.608)"/><path class="b" d="M20.606,25.1H12.6a1.133,1.133,0,1,0,0,2.265h8.009a1.133,1.133,0,1,0,0-2.265Z" transform="translate(0.387 2.195)"/></g></g></g></svg>