<svg xmlns="http://www.w3.org/2000/svg" width="29.038" height="28.099" viewBox="0 0 29.038 28.099"><defs><style>.a{fill:#fff;}</style></defs><g transform="translate(-446.638 -1019)"><g transform="translate(437.338 1011.4)"><g transform="translate(9.3 7.6)"><path class="a" d="M36.469,41.6H26.557a3.955,3.955,0,0,0-7.72,0H9.169a.869.869,0,1,0,0,1.739h9.668a3.955,3.955,0,0,0,7.72,0h9.911a.861.861,0,0,0,.869-.869A.908.908,0,0,0,36.469,41.6ZM22.7,44.69a2.226,2.226,0,1,1,2.226-2.226A2.241,2.241,0,0,1,22.7,44.69Z" transform="translate(-8.3 -28.45)"/><path class="a" d="M12.364,17.529a3.953,3.953,0,0,0,3.86-3.1H36.5a.869.869,0,1,0,0-1.739H16.225a3.961,3.961,0,1,0-3.86,4.834Zm0-6.19a2.226,2.226,0,1,1-2.226,2.226A2.241,2.241,0,0,1,12.364,11.339Z" transform="translate(-8.365 -9.6)"/><path class="a" d="M33.339,67.6a3.989,3.989,0,0,0-3.86,3.06H9.169a.869.869,0,1,0,0,1.739H29.479a3.958,3.958,0,1,0,3.86-4.8Zm0,6.155a2.226,2.226,0,1,1,2.226-2.226A2.241,2.241,0,0,1,33.339,73.755Z" transform="translate(-8.3 -47.43)"/></g></g></g></svg>