<svg xmlns="http://www.w3.org/2000/svg" width="49" height="49" viewBox="0 0 49 49"><defs><style>.a{fill:#fff;font-size:21px;font-family:PTSans-Regular, PT Sans;text-decoration:underline;}.b{fill:#efefef;}.c{fill:#272727;}</style></defs><g transform="translate(-830 -707)"><g transform="translate(-42 -33)"><g transform="translate(432 -1099)"><circle class="b" cx="24.5" cy="24.5" r="24.5" transform="translate(440 1839)"/></g><g transform="translate(882.5 750.5)"><path class="c" d="M14.891,3.293V19.875l6.794-6.794A.793.793,0,1,1,22.8,14.2l-6.9,6.9a2.573,2.573,0,0,1-3.643,0l-6.9-6.894a.793.793,0,0,1,1.122-1.122l6.828,6.828V3.293a.793.793,0,0,1,1.585,0ZM25.662,20.458a.793.793,0,1,0-1.585,0v2.634a.993.993,0,0,1-.993.99h-18a.993.993,0,0,1-1-.99V20.458a.793.793,0,0,0-1.585,0v2.634a2.58,2.58,0,0,0,2.582,2.575h18a2.58,2.58,0,0,0,2.578-2.575Z"/></g></g></g></svg>