<svg id="ios-app" xmlns="http://www.w3.org/2000/svg" xmlns:xlink="http://www.w3.org/1999/xlink" width="230.326" height="75.343" viewBox="0 0 230.326 75.343">
  <defs>
    <clipPath id="clip-path">
      <rect id="Rectangle_1110" data-name="Rectangle 1110" width="230.326" height="75.343"/>
    </clipPath>
  </defs>
  <g id="Group_207" data-name="Group 207" clip-path="url(#clip-path)">
    <path id="Path_84" data-name="Path 84" d="M230.326,65.161a10.182,10.182,0,0,1-10.179,10.183H10.182A10.183,10.183,0,0,1,0,65.161V10.183A10.183,10.183,0,0,1,10.182,0H220.146a10.181,10.181,0,0,1,10.179,10.182Z" transform="translate(0 -0.001)"/>
  </g>
  <g id="Group_208" data-name="Group 208" clip-path="url(#clip-path)">
    <path id="Path_85" data-name="Path 85" d="M60.465,28.614H41.7a4.071,4.071,0,0,0-4.071,4.071V74.25A4.072,4.072,0,0,0,41.7,78.323H60.465a4.073,4.073,0,0,0,4.074-4.073V32.685a4.072,4.072,0,0,0-4.074-4.071m-9.38,46.72A2.712,2.712,0,1,1,53.8,72.621a2.712,2.712,0,0,1-2.713,2.713M61.34,68.589H40.829V37.929H61.34Z" transform="translate(-20.686 -15.729)" fill="#fff"/>
  </g>
  <g id="Group_209" data-name="Group 209" clip-path="url(#clip-path)">
    <path id="Path_86" data-name="Path 86" d="M128.321,35.876l-1.14,3.453h-1.466l3.73-10.981h1.711L134.9,39.329h-1.515l-1.173-3.453Zm3.6-1.107-1.091-3.161c-.229-.717-.392-1.369-.555-2h-.047c-.147.635-.326,1.32-.539,1.987l-1.075,3.178Z" transform="translate(-69.104 -15.582)" fill="#fff"/>
  </g>
  <g id="Group_210" data-name="Group 210" clip-path="url(#clip-path)">
    <path id="Path_87" data-name="Path 87" d="M147.509,35.223l1.548,4.416c.261.732.473,1.385.636,2.035h.049c.179-.651.406-1.3.667-2.035l1.532-4.416h1.5l-3.1,7.885h-1.368l-3-7.885Z" transform="translate(-80.243 -19.362)" fill="#fff"/>
  </g>
  <g id="Group_211" data-name="Group 211" clip-path="url(#clip-path)">
    <path id="Path_88" data-name="Path 88" d="M169.662,41a13.152,13.152,0,0,0,.115,1.889H168.49l-.131-.994h-.048a2.91,2.91,0,0,1-2.411,1.173,2.245,2.245,0,0,1-2.411-2.264c0-1.908,1.695-2.95,4.74-2.933v-.163a1.618,1.618,0,0,0-1.791-1.823,3.8,3.8,0,0,0-2.07.585l-.327-.963a5.124,5.124,0,0,1,2.607-.683c2.429,0,3.014,1.646,3.014,3.227Zm-1.4-2.135c-1.564-.032-3.339.245-3.339,1.776a1.256,1.256,0,0,0,1.334,1.369,1.992,1.992,0,0,0,1.94-1.319,1.487,1.487,0,0,0,.065-.457Z" transform="translate(-89.868 -19.143)" fill="#fff"/>
  </g>
  <g id="Group_212" data-name="Group 212" clip-path="url(#clip-path)">
    <path id="Path_89" data-name="Path 89" d="M182.542,29.757a.92.92,0,0,1,.033-1.84.881.881,0,0,1,.913.912.9.9,0,0,1-.928.928Zm-.683,1.45h1.434v7.885H181.86Z" transform="translate(-99.849 -15.346)" fill="#fff"/>
  </g>
  <g id="Group_213" data-name="Group 213" clip-path="url(#clip-path)">
    <rect id="Rectangle_1116" data-name="Rectangle 1116" width="1.434" height="11.567" transform="translate(85.74 12.18)" fill="#fff"/>
  </g>
  <g id="Group_214" data-name="Group 214" clip-path="url(#clip-path)">
    <path id="Path_90" data-name="Path 90" d="M203.486,41a13.3,13.3,0,0,0,.114,1.889h-1.289l-.13-.994h-.048a2.912,2.912,0,0,1-2.412,1.173,2.246,2.246,0,0,1-2.411-2.264c0-1.908,1.695-2.95,4.742-2.933v-.163a1.619,1.619,0,0,0-1.794-1.823,3.788,3.788,0,0,0-2.067.585l-.327-.963a5.123,5.123,0,0,1,2.607-.683c2.427,0,3.014,1.646,3.014,3.227Zm-1.4-2.135c-1.564-.032-3.341.245-3.341,1.776a1.257,1.257,0,0,0,1.337,1.369,1.992,1.992,0,0,0,1.939-1.319,1.46,1.46,0,0,0,.065-.457Z" transform="translate(-108.459 -19.143)" fill="#fff"/>
  </g>
  <g id="Group_215" data-name="Group 215" clip-path="url(#clip-path)">
    <path id="Path_91" data-name="Path 91" d="M215.862,27.048H217.3v4.936h.034a2.924,2.924,0,0,1,2.687-1.434c1.956,0,3.324,1.63,3.324,4.008,0,2.835-1.792,4.236-3.551,4.236a2.823,2.823,0,0,1-2.638-1.483h-.035l-.081,1.3H215.8c.049-.539.063-1.336.063-2.036Zm1.434,8.407a2.609,2.609,0,0,0,.05.521,2.226,2.226,0,0,0,2.15,1.678c1.515,0,2.394-1.222,2.394-3.031,0-1.6-.814-2.947-2.345-2.947a2.272,2.272,0,0,0-2.168,1.758,2.3,2.3,0,0,0-.082.6Z" transform="translate(-118.622 -14.868)" fill="#fff"/>
  </g>
  <g id="Group_216" data-name="Group 216" clip-path="url(#clip-path)">
    <rect id="Rectangle_1120" data-name="Rectangle 1120" width="1.433" height="11.567" transform="translate(106.429 12.18)" fill="#fff"/>
  </g>
  <g id="Group_217" data-name="Group 217" clip-path="url(#clip-path)">
    <path id="Path_92" data-name="Path 92" d="M244.746,39.172a2.513,2.513,0,0,0,2.688,2.737,5.43,5.43,0,0,0,2.184-.391l.259,1.01a6.409,6.409,0,0,1-2.639.506,3.678,3.678,0,0,1-3.877-3.975c0-2.395,1.417-4.269,3.716-4.269,2.571,0,3.241,2.266,3.241,3.714a3.66,3.66,0,0,1-.05.685Zm4.187-1.026a2.048,2.048,0,0,0-1.972-2.331,2.365,2.365,0,0,0-2.2,2.331Z" transform="translate(-133.773 -19.124)" fill="#fff"/>
  </g>
  <g id="Group_218" data-name="Group 218" clip-path="url(#clip-path)">
    <path id="Path_93" data-name="Path 93" d="M272.572,43.069a3.758,3.758,0,0,1-3.78-4.057,3.86,3.86,0,0,1,3.911-4.187,3.729,3.729,0,0,1,3.795,4.04,3.864,3.864,0,0,1-3.909,4.2Zm.048-1.075c1.369,0,2.394-1.287,2.394-3.08,0-1.336-.666-3.014-2.361-3.014-1.679,0-2.411,1.564-2.411,3.063,0,1.727.977,3.031,2.362,3.031Z" transform="translate(-147.752 -19.143)" fill="#fff"/>
  </g>
  <g id="Group_219" data-name="Group 219" clip-path="url(#clip-path)">
    <path id="Path_94" data-name="Path 94" d="M289.66,37.14c0-.832-.018-1.483-.068-2.135h1.272l.081,1.287h.032a2.923,2.923,0,0,1,2.606-1.466c1.092,0,2.789.653,2.789,3.357V42.89h-1.436V38.343c0-1.269-.471-2.345-1.825-2.345a2.069,2.069,0,0,0-1.922,1.466,2.146,2.146,0,0,0-.1.669V42.89H289.66V37.14Z" transform="translate(-159.185 -19.143)" fill="#fff"/>
  </g>
  <g id="Group_220" data-name="Group 220" clip-path="url(#clip-path)">
    <path id="Path_95" data-name="Path 95" d="M317.757,31.029v1.889h2.051v1.092h-2.051v4.253c0,.977.277,1.532,1.074,1.532a2.651,2.651,0,0,0,.833-.1l.063,1.092a3.891,3.891,0,0,1-1.269.2,2.051,2.051,0,0,1-1.55-.6,3.1,3.1,0,0,1-.553-2.071v-4.3h-1.221V32.918h1.221v-1.45Z" transform="translate(-173.225 -17.056)" fill="#fff"/>
  </g>
  <g id="Group_221" data-name="Group 221" clip-path="url(#clip-path)">
    <path id="Path_96" data-name="Path 96" d="M328.915,27.048h1.434v4.92h.032a2.547,2.547,0,0,1,1.027-1.01,2.789,2.789,0,0,1,1.467-.408c1.058,0,2.751.653,2.751,3.373v4.691h-1.432V34.086c0-1.287-.473-2.347-1.826-2.347a2.075,2.075,0,0,0-1.921,1.434,1.737,1.737,0,0,0-.1.685v4.757h-1.434V27.048Z" transform="translate(-180.801 -14.868)" fill="#fff"/>
  </g>
  <g id="Group_222" data-name="Group 222" clip-path="url(#clip-path)">
    <path id="Path_97" data-name="Path 97" d="M348.929,39.172a2.514,2.514,0,0,0,2.688,2.737,5.442,5.442,0,0,0,2.184-.391l.26,1.01a6.424,6.424,0,0,1-2.641.506,3.678,3.678,0,0,1-3.877-3.975c0-2.395,1.418-4.269,3.715-4.269,2.574,0,3.243,2.266,3.243,3.714a3.72,3.72,0,0,1-.049.685Zm4.188-1.026a2.049,2.049,0,0,0-1.972-2.331,2.364,2.364,0,0,0-2.2,2.331Z" transform="translate(-191.041 -19.124)" fill="#fff"/>
  </g>
  <g id="Group_223" data-name="Group 223" clip-path="url(#clip-path)">
    <path id="Path_98" data-name="Path 98" d="M374.669,29.757a.92.92,0,0,1,.031-1.84.881.881,0,0,1,.912.912.9.9,0,0,1-.931.928Zm-.686,1.45h1.434v7.885h-1.434Z" transform="translate(-205.457 -15.346)" fill="#fff"/>
  </g>
  <g id="Group_224" data-name="Group 224" clip-path="url(#clip-path)">
    <path id="Path_99" data-name="Path 99" d="M382.635,28.4a14.733,14.733,0,0,1,2.721-.228,4.5,4.5,0,0,1,3.077.914,2.959,2.959,0,0,1,.979,2.3,3.168,3.168,0,0,1-.865,2.345,4.541,4.541,0,0,1-3.355,1.206,4.986,4.986,0,0,1-1.14-.1v4.4h-1.418Zm1.418,5.279a4.816,4.816,0,0,0,1.173.114c1.727,0,2.753-.847,2.753-2.329,0-1.466-1.027-2.166-2.59-2.166a7.062,7.062,0,0,0-1.336.114Z" transform="translate(-210.33 -15.484)" fill="#fff"/>
  </g>
  <g id="Group_225" data-name="Group 225" clip-path="url(#clip-path)">
    <path id="Path_100" data-name="Path 100" d="M401.412,27.048h1.435v4.92h.032a2.553,2.553,0,0,1,1.025-1.01,2.8,2.8,0,0,1,1.467-.408c1.059,0,2.753.653,2.753,3.373v4.691h-1.432V34.086c0-1.287-.473-2.347-1.826-2.347a2.079,2.079,0,0,0-1.922,1.434,1.737,1.737,0,0,0-.1.685v4.757h-1.435Z" transform="translate(-220.651 -14.868)" fill="#fff"/>
  </g>
  <g id="Group_226" data-name="Group 226" clip-path="url(#clip-path)">
    <path id="Path_101" data-name="Path 101" d="M423.822,43.069a3.759,3.759,0,0,1-3.78-4.057,3.86,3.86,0,0,1,3.911-4.187,3.728,3.728,0,0,1,3.794,4.04,3.863,3.863,0,0,1-3.908,4.2Zm.05-1.075c1.366,0,2.394-1.287,2.394-3.08,0-1.336-.667-3.014-2.363-3.014-1.677,0-2.411,1.564-2.411,3.063,0,1.727.977,3.031,2.362,3.031Z" transform="translate(-230.892 -19.143)" fill="#fff"/>
  </g>
  <g id="Group_227" data-name="Group 227" clip-path="url(#clip-path)">
    <path id="Path_102" data-name="Path 102" d="M440.91,37.14c0-.832-.017-1.483-.065-2.135h1.271l.081,1.287h.034a2.922,2.922,0,0,1,2.606-1.466c1.092,0,2.784.653,2.784,3.357V42.89h-1.432V38.343c0-1.269-.473-2.345-1.826-2.345a2.067,2.067,0,0,0-1.921,1.466,2.118,2.118,0,0,0-.1.669V42.89H440.91Z" transform="translate(-242.327 -19.143)" fill="#fff"/>
  </g>
  <g id="Group_228" data-name="Group 228" clip-path="url(#clip-path)">
    <path id="Path_103" data-name="Path 103" d="M461,39.172a2.514,2.514,0,0,0,2.689,2.737,5.427,5.427,0,0,0,2.182-.391l.261,1.01a6.425,6.425,0,0,1-2.64.506,3.679,3.679,0,0,1-3.878-3.975c0-2.395,1.418-4.269,3.714-4.269,2.574,0,3.243,2.266,3.243,3.714a3.716,3.716,0,0,1-.048.685Zm4.187-1.026a2.048,2.048,0,0,0-1.972-2.331,2.364,2.364,0,0,0-2.2,2.331Z" transform="translate(-252.647 -19.124)" fill="#fff"/>
  </g>
  <g id="Group_229" data-name="Group 229" clip-path="url(#clip-path)">
    <path id="Path_104" data-name="Path 104" d="M134.7,69.251l-9.66,28.435h4.423l2.884-8.731H141.7l2.965,8.731h4.546l-9.7-28.435H134.7Zm2.292,4.675c.326,1.269.678,2.587,1.13,4.011l2.6,7.539h-7.409l2.568-7.588c.391-1.231.762-2.56,1.108-3.962" transform="translate(-68.734 -38.066)" fill="#fff"/>
  </g>
  <g id="Group_230" data-name="Group 230" clip-path="url(#clip-path)">
    <path id="Path_105" data-name="Path 105" d="M193.118,85.621a8.05,8.05,0,0,0-6.839,3.281l-.171-2.828h-3.935l.023.362c.115,1.762.165,3.7.165,6.486v21.917h4.3V104.609a7.555,7.555,0,0,0,5.881,2.527,8.87,8.87,0,0,0,6.519-2.771,11.758,11.758,0,0,0,2.879-8.275,11.441,11.441,0,0,0-2.5-7.555,8.184,8.184,0,0,0-6.322-2.914m-1.072,3.561c3.835,0,5.551,3.553,5.551,7.073,0,4.541-2.19,7.362-5.714,7.362a5.215,5.215,0,0,1-5.068-3.992,5.518,5.518,0,0,1-.154-1.393v-3.46a6.423,6.423,0,0,1,.137-1.061c.021-.118.044-.236.062-.35a5.447,5.447,0,0,1,5.186-4.178" transform="translate(-100.138 -47.065)" fill="#fff"/>
  </g>
  <g id="Group_231" data-name="Group 231" clip-path="url(#clip-path)">
    <path id="Path_106" data-name="Path 106" d="M242.313,85.621a8.053,8.053,0,0,0-6.84,3.281l-.171-2.828h-3.934l.023.362c.116,1.763.165,3.7.165,6.486v21.917h4.3V104.609a7.548,7.548,0,0,0,5.878,2.527,8.879,8.879,0,0,0,6.522-2.771,11.767,11.767,0,0,0,2.877-8.275,11.446,11.446,0,0,0-2.5-7.555,8.183,8.183,0,0,0-6.322-2.914m-1.07,3.561c3.834,0,5.55,3.553,5.55,7.073,0,4.541-2.191,7.362-5.714,7.362a5.215,5.215,0,0,1-5.068-3.992,5.508,5.508,0,0,1-.151-1.393v-3.46A6.207,6.207,0,0,1,236,93.707c.021-.116.042-.232.062-.346a5.444,5.444,0,0,1,5.185-4.178" transform="translate(-127.18 -47.065)" fill="#fff"/>
  </g>
  <g id="Group_232" data-name="Group 232" clip-path="url(#clip-path)">
    <path id="Path_107" data-name="Path 107" d="M304.8,80.746c-4.015-1.555-5.3-2.778-5.3-5.037,0-1.9,1.512-3.82,4.89-3.82a9.776,9.776,0,0,1,5.05,1.268l.365.225,1.214-3.59-.241-.14a12.461,12.461,0,0,0-6.265-1.406c-5.486,0-9.318,3.24-9.318,7.876,0,3.739,2.4,6.352,7.551,8.224,3.65,1.365,5.009,2.763,5.009,5.159,0,2.713-2.1,4.4-5.468,4.4a11.779,11.779,0,0,1-6.2-1.758l-.373-.24-1.155,3.674.212.14a14.731,14.731,0,0,0,7.27,1.869c7.394,0,10.016-4.509,10.016-8.37,0-3.98-2.1-6.435-7.257-8.469" transform="translate(-161.917 -37.513)" fill="#fff"/>
  </g>
  <g id="Group_233" data-name="Group 233" clip-path="url(#clip-path)">
    <path id="Path_108" data-name="Path 108" d="M341.7,75.746l-4.22,1.324v3.574h-3.088v3.439h3.088V94.615c0,2.547.487,4.331,1.49,5.458a5.514,5.514,0,0,0,4.162,1.634,10.121,10.121,0,0,0,3.325-.513l.241-.086-.206-3.444-.412.127a6.5,6.5,0,0,1-2,.231c-1.668,0-2.379-1.056-2.379-3.531V84.083h5.189V80.645H341.7Z" transform="translate(-183.809 -41.636)" fill="#fff"/>
  </g>
  <g id="Group_234" data-name="Group 234" clip-path="url(#clip-path)">
    <path id="Path_109" data-name="Path 109" d="M373.337,85.62c-6.019,0-10.223,4.492-10.223,10.922,0,6.237,4.068,10.593,9.893,10.593h.041c4.924,0,10.223-3.43,10.223-10.963a10.871,10.871,0,0,0-2.742-7.61,9.574,9.574,0,0,0-7.192-2.942m-.124,3.4c3.871,0,5.632,3.773,5.632,7.28,0,4.313-2.4,7.443-5.714,7.443h-.041c-3.264,0-5.632-3.078-5.632-7.319,0-3.684,1.779-7.4,5.755-7.4" transform="translate(-199.599 -47.064)" fill="#fff"/>
  </g>
  <g id="Group_235" data-name="Group 235" clip-path="url(#clip-path)">
    <path id="Path_110" data-name="Path 110" d="M424.064,85.82l-.258-.066a4.158,4.158,0,0,0-1.07-.133,6.137,6.137,0,0,0-5.394,3.463l-.127-3.011h-3.86l.024.362c.114,1.7.163,3.615.163,6.2l-.041,14.054h4.3V95.719a11.245,11.245,0,0,1,.118-1.667c.486-2.634,2.263-4.336,4.527-4.336a10.874,10.874,0,0,1,1.155.073l.46.047Z" transform="translate(-227.216 -47.065)" fill="#fff"/>
  </g>
  <g id="Group_236" data-name="Group 236" clip-path="url(#clip-path)">
    <path id="Path_111" data-name="Path 111" d="M446.742,85.529c-5.728,0-9.729,4.576-9.729,11.128,0,6.31,3.98,10.388,10.139,10.388a16.507,16.507,0,0,0,6.812-1.307l.258-.117-.826-3.206-.36.145a13.333,13.333,0,0,1-5.391.964c-1.869,0-6.178-.616-6.443-6.237l13.887.041.055-.275a9.515,9.515,0,0,0,.13-1.8c0-4.487-2.235-9.729-8.534-9.729m-.288,3.273a4.244,4.244,0,0,1,3.159,1.205,6.118,6.118,0,0,1,1.481,4h-9.81c.4-2.484,1.953-5.209,5.17-5.209" transform="translate(-240.221 -47.014)" fill="#fff"/>
  </g>
</svg>
