<svg id="noun_leader_3338410" xmlns="http://www.w3.org/2000/svg" width="26.198" height="34.618" viewBox="0 0 26.198 34.618">
  <path id="Path_1384" data-name="Path 1384" d="M35.871,17.905a5.591,5.591,0,0,0,1.465,3.77A3.594,3.594,0,0,0,34,25.249V35.682a.936.936,0,0,0,.936.936h13.1a.936.936,0,0,0,.936-.936V29.5L59.949,17.605a.936.936,0,0,0-.688-1.571V2.936A.936.936,0,0,0,58.326,2H48.97a.936.936,0,0,0-.561,1.684l2.744,2.058L48.408,7.8a.936.936,0,0,0,.561,1.684H57.39v6.549H55.519a.941.941,0,0,0-.519.157l-8.182,5.456h-1.16a5.614,5.614,0,1,0-9.787-3.742ZM51.777,7.614l1.5-1.123a.936.936,0,0,0,0-1.5l-1.5-1.123H57.39V7.614ZM47.1,23.519a.941.941,0,0,0,.519-.157L55.8,17.905h1.322L47.347,28.5a.942.942,0,0,0-.248.635v5.614H35.871v-9.5a1.732,1.732,0,0,1,1.73-1.73Zm-1.871-5.614a3.742,3.742,0,1,1-3.742-3.742A3.742,3.742,0,0,1,45.227,17.905Z" transform="translate(-34 -2)" fill="#272727"/>
</svg>
