<svg xmlns="http://www.w3.org/2000/svg" width="49" height="49" viewBox="0 0 49 49"><defs><style>.a{fill:#efefef;}.b{fill:#2e2e2e;stroke:#272727;}</style></defs><g transform="translate(-440 -1839)"><circle class="a" cx="24.5" cy="24.5" r="24.5" transform="translate(440 1839)"/><g transform="translate(417.18 1816.475)"><path class="b" d="M15.7,9.922A6.205,6.205,0,0,0,5.814,11.2a6.3,6.3,0,0,0-.686,4.358A12.5,12.5,0,0,0,8.989,21.49l6.33,6.33a.535.535,0,0,0,.756,0l6.33-6.33a12.862,12.862,0,0,0,3.83-5.792A6.233,6.233,0,0,0,15.7,9.922Zm9.128,6.613c-1.254,2.639-2.335,3.293-9.128,10.149l-5.42-5.42C8.793,19.8,5.43,16.7,6.17,13.28A5.133,5.133,0,0,1,11.188,9.1a5.457,5.457,0,0,1,3.637,1.476c.205.167.378.387.585.553a.538.538,0,0,0,.676-.084A5.92,5.92,0,0,1,19.5,9.15a5.093,5.093,0,0,1,5.481,3.277A5.258,5.258,0,0,1,24.825,16.535Z" transform="translate(31.625 29.5)"/></g></g></svg>