<?xml version="1.0" encoding="utf-8"?>
<!-- Generator: Adobe Illustrator 17.0.0, SVG Export Plug-In . SVG Version: 6.00 Build 0)  -->
<!DOCTYPE svg PUBLIC "-//W3C//DTD SVG 1.1//EN" "http://www.w3.org/Graphics/SVG/1.1/DTD/svg11.dtd">
<svg version="1.1" id="Layer_1" xmlns="http://www.w3.org/2000/svg" xmlns:xlink="http://www.w3.org/1999/xlink" x="0px" y="0px"
	 width="40px" height="40px" viewBox="0 0 40 40" enable-background="new 0 0 40 40" xml:space="preserve">
<rect opacity="0" fill="#3A4DA1" width="40" height="40"/>
<g transform="translate(-79.2 -73.1)">
	<g transform="translate(79.2 73.1)">
		<path fill="#010101" d="M6.334,0C3.207,0,0.672,2.535,0.672,5.662s2.535,5.662,5.662,5.662s5.662-2.535,5.662-5.662
			C11.995,2.536,9.461,0.001,6.334,0z M6.334,8.276c-1.437,0-2.602-1.165-2.602-2.602s1.165-2.602,2.602-2.602
			c1.437,0,2.602,1.165,2.602,2.602C8.933,7.109,7.77,8.273,6.334,8.276z"/>
		<rect x="16.261" y="4.154" fill="#010101" width="23.068" height="3.061"/>
		<path fill="#010101" d="M6.334,14.332c-3.127,0-5.662,2.535-5.662,5.662s2.535,5.662,5.662,5.662c3.127,0,5.662-2.535,5.662-5.662
			C11.992,16.869,9.459,14.337,6.334,14.332z M6.334,22.608c-1.437,0-2.602-1.165-2.602-2.602s1.165-2.602,2.602-2.602
			c1.437,0,2.602,1.165,2.602,2.602C8.933,21.441,7.77,22.605,6.334,22.608z"/>
		<rect x="16.261" y="18.475" fill="#010101" width="23.068" height="3.061"/>
		<path fill="#010101" d="M6.334,28.675c-3.127,0-5.662,2.535-5.662,5.662C0.672,37.465,3.207,40,6.334,40s5.662-2.535,5.662-5.662
			l0,0C11.995,31.211,9.461,28.676,6.334,28.675z M6.334,36.951c-1.437,0-2.602-1.165-2.602-2.602s1.165-2.602,2.602-2.602
			c1.437,0,2.602,1.165,2.602,2.602C8.933,35.784,7.77,36.948,6.334,36.951z"/>
		<rect x="16.261" y="32.797" fill="#010101" width="23.068" height="3.061"/>
	</g>
</g>
</svg>
