<svg xmlns="http://www.w3.org/2000/svg" width="98" height="26.368" viewBox="0 0 98 26.368"><defs><style>.a{fill:#7ebf02;}.b,.c{fill:#fff;}.b{font-size:14px;font-family:Lora-Regular, Lora;}</style></defs><g transform="translate(-843 -1155.239)"><g transform="translate(766 -2331.761)"><g transform="translate(97 3487)"><path class="a" d="M-13.471,0H71.471A6.529,6.529,0,0,1,78,6.529V19.838a6.529,6.529,0,0,1-6.529,6.529H-13.471A6.529,6.529,0,0,1-20,19.838V6.529A6.529,6.529,0,0,1-13.471,0Z"/></g></g><text class="b" transform="translate(870.995 1173)"><tspan x="0" y="0">Live Now</tspan></text><g transform="translate(852.995 1161.796)"><path class="c" d="M2.666,11.9a.634.634,0,0,1-.614-.773l.763-3.369L.223,5.483a.634.634,0,0,1,.357-1.1l3.434-.312L5.371.89a.634.634,0,0,1,1.164,0L7.893,4.066l3.434.312a.634.634,0,0,1,.357,1.1l-2.6,2.274.763,3.369a.634.634,0,0,1-.927.684L5.951,10.041,2.978,11.81a.629.629,0,0,1-.312.089ZM5.951,9.278a.634.634,0,0,1,.322.089l2.794,1.67L8.344,7.856a.629.629,0,0,1,.2-.614l2.448-2.15L7.749,4.8a.629.629,0,0,1-.525-.382l-1.273-3-1.278,3a.629.629,0,0,1-.525.382l-3.24.292,2.448,2.15a.629.629,0,0,1,.2.614l-.718,3.181,2.794-1.67h0A.634.634,0,0,1,5.951,9.278ZM3.969,4.126Zm3.929,0Z" transform="translate(0)"/></g></g></svg>