<?xml version="1.0" encoding="utf-8"?>
<!-- Generator: Adobe Illustrator 17.0.0, SVG Export Plug-In . SVG Version: 6.00 Build 0)  -->
<!DOCTYPE svg PUBLIC "-//W3C//DTD SVG 1.1//EN" "http://www.w3.org/Graphics/SVG/1.1/DTD/svg11.dtd">
<svg version="1.1" id="Capa_1" xmlns="http://www.w3.org/2000/svg" xmlns:xlink="http://www.w3.org/1999/xlink" x="0px" y="0px"
	 width="40px" height="40px" viewBox="0 0 40 40" enable-background="new 0 0 40 40" xml:space="preserve">
<g>
	<g id="Sign_Out">
		<path fill="#272727" d="M18.75,37.5H2.5v-35h16.25C19.44,2.5,20,1.94,20,1.25S19.44,0,18.75,0H1.25C0.56,0,0,0.56,0,1.25v37.5
			C0,39.44,0.56,40,1.25,40h17.5c0.69,0,1.25-0.56,1.25-1.25C20,38.06,19.44,37.5,18.75,37.5z"/>
		<path fill="#272727" d="M39.637,19.127l-8.625-8.749c-0.489-0.494-1.28-0.493-1.768,0c-0.489,0.493-0.489,1.292,0,1.785l6.5,6.594
			H10.004c-0.69,0-1.25,0.565-1.25,1.263c0,0.698,0.56,1.263,1.25,1.263h25.741l-6.5,6.594c-0.489,0.494-0.489,1.292,0,1.785
			c0.489,0.494,1.28,0.494,1.768,0l8.624-8.749C40.119,20.426,40.124,19.612,39.637,19.127z"/>
	</g>
</g>
</svg>
