<?xml version="1.0" encoding="utf-8"?>
<!-- Generator: Adobe Illustrator 17.0.0, SVG Export Plug-In . SVG Version: 6.00 Build 0)  -->
<!DOCTYPE svg PUBLIC "-//W3C//DTD SVG 1.1//EN" "http://www.w3.org/Graphics/SVG/1.1/DTD/svg11.dtd">
<svg version="1.1" id="Layer_1" xmlns="http://www.w3.org/2000/svg" xmlns:xlink="http://www.w3.org/1999/xlink" x="0px" y="0px"
	 width="70px" height="70px" viewBox="0 0 70 70" enable-background="new 0 0 70 70" xml:space="preserve">
<g transform="translate(395 2962)">
	<circle fill="#EFEFEF" cx="-360" cy="-2927" r="35"/>
</g>
<g transform="translate(410.603 2983.277)">
	<g transform="translate(0 0)">
		<path fill="#272727" d="M-391.42-2962c-2.002,0.032-3.602,1.676-3.58,3.678v18.585c-0.022,2.005,1.576,3.653,3.58,3.692h30.429
			c2.004-0.04,3.602-1.688,3.58-3.692v-18.585c0.022-2.002-1.578-3.646-3.58-3.678H-391.42z M-391.42-2960.21h30.429
			c0.256,0.002,0.509,0.059,0.741,0.168l-14.8,13.69c-0.625,0.629-1.642,0.633-2.271,0.008c-0.003-0.003-0.005-0.005-0.008-0.008
			l-14.818-13.69C-391.919-2960.149-391.672-2960.206-391.42-2960.21z M-393.182-2958.562l10.5,9.7l-10.304,10.034
			c-0.146-0.281-0.222-0.593-0.224-0.909v-18.585c0.005-0.08,0.014-0.159,0.028-0.238V-2958.562z M-359.228-2958.548
			c0.013,0.074,0.023,0.149,0.028,0.224v18.585c0.001,0.312-0.071,0.62-0.21,0.9l-10.279-10.03l10.46-9.677L-359.228-2958.548z
			 M-370.989-2947.662l10.055,9.831h-30.528l10.1-9.817l2.825,2.615c1.331,1.228,3.382,1.228,4.713,0l2.839-2.629H-370.989z"/>
	</g>
</g>
</svg>
