<svg xmlns="http://www.w3.org/2000/svg" width="25.053" height="28" viewBox="0 0 25.053 28">
  <g id="noun_User_4079279" transform="translate(-140 -40)">
    <g id="Group_1016" data-name="Group 1016" transform="translate(131 35)">
      <path id="Path_236" data-name="Path 236" d="M21.526,23.024a13.507,13.507,0,0,1,12.421,8.17,1.292,1.292,0,1,1-2.373,1.023,10.942,10.942,0,0,0-20.1,0A1.293,1.293,0,0,1,10.291,33a1.247,1.247,0,0,1-.51-.106,1.291,1.291,0,0,1-.675-1.7A13.507,13.507,0,0,1,21.526,23.024ZM21.526,5a8.021,8.021,0,1,1-8.021,8.021A8.029,8.029,0,0,1,21.526,5Zm0,2.582a5.439,5.439,0,1,0,5.439,5.439A5.445,5.445,0,0,0,21.526,7.582Z" fill="#fff"/>
    </g>
  </g>
</svg>
