<?xml version="1.0" encoding="utf-8"?>
<!-- Generator: Adobe Illustrator 17.0.0, SVG Export Plug-In . SVG Version: 6.00 Build 0)  -->
<!DOCTYPE svg PUBLIC "-//W3C//DTD SVG 1.1//EN" "http://www.w3.org/Graphics/SVG/1.1/DTD/svg11.dtd">
<svg version="1.1" id="Capa_1" xmlns="http://www.w3.org/2000/svg" xmlns:xlink="http://www.w3.org/1999/xlink" x="0px" y="0px"
	 width="25px" height="25px" viewBox="7.5 7.5 25 25" enable-background="new 7.5 7.5 25 25" xml:space="preserve">
<g>
	<g>
		<g>
			<path fill="#2E2E2E" d="M30.789,27.935c-2.657-1.2-2.758-6.35-2.76-6.48v-3.455c0-3.325-2.032-6.185-4.919-7.402
				C23.103,8.889,21.711,7.5,20,7.5c-1.711,0-3.103,1.389-3.11,3.098c-2.887,1.217-4.919,4.077-4.919,7.402v3.455
				c-0.002,0.13-0.103,5.28-2.76,6.48c-0.303,0.137-0.469,0.466-0.399,0.791c0.07,0.325,0.357,0.557,0.689,0.557h6.735
				c0.138,0.76,0.497,1.466,1.047,2.039c0.73,0.76,1.694,1.179,2.717,1.179c1.022,0,1.987-0.419,2.717-1.179
				c0.549-0.572,0.909-1.279,1.047-2.039h6.735c0.332,0,0.619-0.232,0.689-0.557C31.258,28.401,31.091,28.072,30.789,27.935z
				 M27.289,25.468c0.279,0.847,0.675,1.697,1.236,2.405H11.475c0.561-0.708,0.956-1.558,1.235-2.405H27.289z M20,8.91
				c0.774,0,1.428,0.52,1.633,1.229C21.106,10.029,20.559,9.972,20,9.972c-0.559,0-1.106,0.058-1.633,0.167
				C18.572,9.43,19.226,8.91,20,8.91z M13.381,21.46V18c0-3.65,2.969-6.619,6.619-6.619s6.619,2.969,6.619,6.619v3.465
				c0.001,0.106,0.017,1.221,0.298,2.593H13.083C13.364,22.685,13.38,21.568,13.381,21.46z M20,31.09
				c-1.076,0-2.015-0.776-2.317-1.807h4.633C22.015,30.314,21.076,31.09,20,31.09z"/>
			<path fill="#2E2E2E" d="M20,12.371c-3.033,0-5.501,2.468-5.501,5.501c0,0.389,0.316,0.705,0.705,0.705
				c0.389,0,0.705-0.316,0.705-0.705c0-2.256,1.835-4.091,4.091-4.091c0.389,0,0.705-0.316,0.705-0.705
				C20.705,12.686,20.389,12.371,20,12.371z"/>
		</g>
	</g>
</g>
</svg>
