<svg id="noun_Bank_4217829" xmlns="http://www.w3.org/2000/svg" width="45.881" height="45.881" viewBox="0 0 45.881 45.881">
  <g id="Group_1497" data-name="Group 1497">
    <path id="Path_1394" data-name="Path 1394" d="M43.921,17.28v-.815a3.706,3.706,0,0,0,2.96-3.625V10.62a.741.741,0,0,0-.465-.687l-22.2-8.88a.743.743,0,0,0-.549,0l-22.2,8.88A.741.741,0,0,0,1,10.62v2.22a3.706,3.706,0,0,0,2.96,3.625v.815a2.216,2.216,0,0,0,1.48,2.084V38.877a2.216,2.216,0,0,0-1.48,2.084v.815A3.706,3.706,0,0,0,1,45.4v.74a.74.74,0,0,0,.74.74h44.4a.74.74,0,0,0,.74-.74V45.4a3.706,3.706,0,0,0-2.96-3.625v-.815a2.216,2.216,0,0,0-1.48-2.084V19.364A2.216,2.216,0,0,0,43.921,17.28Zm-1.48,0a.741.741,0,0,1-.74.74h-4.44a.741.741,0,0,1-.74-.74v-.74h5.92Zm0,23.681v.74h-5.92v-.74a.741.741,0,0,1,.74-.74H41.7A.741.741,0,0,1,42.441,40.961Zm-14.06.74v-.74a2.216,2.216,0,0,0-1.48-2.084V19.364a2.216,2.216,0,0,0,1.48-2.084v-.74h6.66v.74a2.216,2.216,0,0,0,1.48,2.084V38.877a2.216,2.216,0,0,0-1.48,2.084v.74Zm-15.54,0v-.74a2.216,2.216,0,0,0-1.48-2.084V19.364a2.216,2.216,0,0,0,1.48-2.084v-.74H19.5v.74a2.216,2.216,0,0,0,1.48,2.084V38.877a2.216,2.216,0,0,0-1.48,2.084v.74ZM5.44,17.28v-.74h5.92v.74a.741.741,0,0,1-.74.74H6.18A.741.741,0,0,1,5.44,17.28ZM6.92,19.5H9.88v19.24H6.92Zm15.54,0h2.96v19.24h-2.96Zm3.7-1.48h-4.44a.741.741,0,0,1-.74-.74v-.74H26.9v.74A.741.741,0,0,1,26.161,18.021Zm-5.18,22.941a.741.741,0,0,1,.74-.74h4.44a.741.741,0,0,1,.74.74v.74h-5.92Zm19.981-2.22H38V19.5h2.96ZM2.48,12.84V11.121L23.941,2.537,45.4,11.121V12.84a2.223,2.223,0,0,1-2.22,2.22H4.7a2.222,2.222,0,0,1-2.22-2.22ZM5.44,40.961a.741.741,0,0,1,.74-.74h4.44a.741.741,0,0,1,.74.74v.74H5.44ZM45.4,45.4H2.48a2.222,2.222,0,0,1,2.22-2.22H43.181A2.222,2.222,0,0,1,45.4,45.4ZM23.941,12.1a2.96,2.96,0,1,0-2.96-2.96A2.96,2.96,0,0,0,23.941,12.1Zm0-4.44a1.48,1.48,0,1,1-1.48,1.48A1.48,1.48,0,0,1,23.941,7.66Z" transform="translate(-1 -1)" fill="#ffd018"/>
  </g>
</svg>
