<svg id="noun_User_2620654" xmlns="http://www.w3.org/2000/svg" width="37.094" height="40.786" viewBox="0 0 37.094 40.786">
  <g id="Group_1495" data-name="Group 1495">
    <path id="Path_1390" data-name="Path 1390" d="M79.647,0A10.647,10.647,0,1,1,69,10.647,10.7,10.7,0,0,1,79.647,0Zm0,1.946a8.7,8.7,0,1,0,8.7,8.7A8.7,8.7,0,0,0,79.647,1.946Z" transform="translate(-61.1)" fill="#272727"/>
    <path id="Path_1391" data-name="Path 1391" d="M204.785,196.268c-1.259-.458-.572-2.29.572-1.832a18.512,18.512,0,0,1,12.479,17.517.974.974,0,0,1-1.946,0A16.555,16.555,0,0,0,204.785,196.268Z" transform="translate(-180.743 -172.111)" fill="#272727"/>
    <path id="Path_1392" data-name="Path 1392" d="M1.946,211.953a.974.974,0,0,1-1.946,0,18.512,18.512,0,0,1,12.479-17.517c1.145-.458,1.832,1.374.572,1.832A16.555,16.555,0,0,0,1.946,211.953Z" transform="translate(0 -172.111)" fill="#272727"/>
  </g>
</svg>
