<svg xmlns="http://www.w3.org/2000/svg" width="43.929" height="46.125" viewBox="0 0 43.929 46.125">
  <g id="noun_Address_1596057" transform="translate(0 0)">
    <g id="Group_1496" data-name="Group 1496">
      <path id="Path_1393" data-name="Path 1393" d="M42.123,960.359a11.806,11.806,0,0,0-11.772,10.948L23.5,969.18a1.421,1.421,0,0,0-.652,0l-12.08,3.741A1.1,1.1,0,0,0,10,973.984v11.635a1.1,1.1,0,1,0,2.2,0V974.791l9.884-3.055v29.087l-9.884,3.055V990.012a1.1,1.1,0,0,0-2.2,0v15.376a1.1,1.1,0,0,0,1.424,1.047l11.754-3.64,11.754,3.638a1.1,1.1,0,0,0,.652,0l12.08-3.741a1.1,1.1,0,0,0,.772-1.045V983.423c.479-.573.957-1.157,1.407-1.75,2.217-2.92,4.025-6.092,4.084-9.507,0-.011,0-.023,0-.034a11.8,11.8,0,0,0-11.806-11.772Zm0,2.2a9.573,9.573,0,0,1,9.609,9.558c0,.005,0,.012,0,.017-.052,2.634-1.548,5.45-3.638,8.2-1.838,2.421-4.041,4.752-5.972,6.933-1.931-2.183-4.135-4.492-5.972-6.916-2.086-2.753-3.586-5.585-3.638-8.22,0-.006,0-.011,0-.017a9.571,9.571,0,0,1,9.609-9.558Zm0,3.844a5.766,5.766,0,1,0,5.766,5.766A5.782,5.782,0,0,0,42.123,966.4Zm0,2.2a3.569,3.569,0,1,1-3.569,3.569A3.553,3.553,0,0,1,42.123,968.6Zm-17.846,3.14,6.178,1.9a18.237,18.237,0,0,0,3.707,7.688s0,.013,0,.017v22.532l-9.884-3.055V971.736Zm12.08,12.338c1.711,2,3.488,3.865,4.925,5.543a1.1,1.1,0,0,0,1.665,0c.981-1.145,2.12-2.37,3.295-3.672v14.878l-9.884,3.055Z" transform="translate(-10 -960.359)" fill="#ffd018"/>
    </g>
  </g>
</svg>
