<?xml version="1.0" encoding="utf-8"?>
<!-- Generator: Adobe Illustrator 17.0.0, SVG Export Plug-In . SVG Version: 6.00 Build 0)  -->
<!DOCTYPE svg PUBLIC "-//W3C//DTD SVG 1.1//EN" "http://www.w3.org/Graphics/SVG/1.1/DTD/svg11.dtd">
<svg version="1.1" id="Layer_1" xmlns="http://www.w3.org/2000/svg" xmlns:xlink="http://www.w3.org/1999/xlink" x="0px" y="0px"
	 width="70px" height="70px" viewBox="0 0 70 70" enable-background="new 0 0 70 70" xml:space="preserve">
<g transform="translate(395 2962)">
	<circle fill="#EFEFEF" cx="-360" cy="-2927" r="35"/>
</g>
<g transform="translate(410.667 2975.485)">
	<g transform="translate(5 2)">
		<path fill="#272727" d="M-372.7-2934.122h-19.512v-23.696c0-0.77,0.624-1.394,1.394-1.394l0,0h5.576
			c0.001,1.54,1.25,2.787,2.79,2.786c1.539-0.001,2.786-1.248,2.786-2.786h5.576c0.768,0.002,1.39,0.625,1.39,1.394v6.97h2.79v-6.97
			c0-2.309-1.872-4.181-4.181-4.182h-16.727c-2.31,0-4.182,1.872-4.182,4.182v30.666c0,2.31,1.872,4.182,4.182,4.182h16.727
			c2.31,0,4.182-1.872,4.182-4.182v-9.758h-2.791V-2934.122z M-374.094-2925.759h-16.724c-0.77,0-1.394-0.624-1.394-1.394l0,0
			v-4.181h19.512v4.182c0,0.769-0.622,1.392-1.391,1.394L-374.094-2925.759z M-381.064-2928.547c0,0.77-0.624,1.394-1.394,1.394
			c-0.77,0-1.394-0.624-1.394-1.394c0-0.77,0.624-1.394,1.394-1.394c0.77-0.002,1.395,0.621,1.397,1.391c0,0.001,0,0.003,0,0.004
			L-381.064-2928.547z M-364.334-2943.879c0,0.439-0.207,0.852-0.558,1.115l-5.576,4.182l-1.673-2.23l2.23-1.673h-13.938v-2.788
			h13.939l-2.23-1.673l1.673-2.23l5.576,4.182C-364.54-2944.731-364.334-2944.318-364.334-2943.879z"/>
	</g>
</g>
</svg>
