<svg xmlns="http://www.w3.org/2000/svg" width="100.667" height="100.667" viewBox="0 0 100.667 100.667"><defs><style>.a{fill:#ffd018;}.b{fill:#272727;}</style></defs><g transform="translate(4 73)"><g transform="translate(-4 -73)"><path class="a" d="M50.333,0A50.333,50.333,0,1,1,0,50.333,50.333,50.333,0,0,1,50.333,0Z"/><g transform="translate(36 34)"><path class="b" d="M7.33,30A3.33,3.33,0,0,1,4,26.67V5.38A3.38,3.38,0,0,1,7.38,2,3.23,3.23,0,0,1,9,2.45l17.13,9.92a3.65,3.65,0,0,1,.12,6.26L9.1,29.49A3.34,3.34,0,0,1,7.33,30Zm0-26A1.38,1.38,0,0,0,6,5.38V26.67A1.34,1.34,0,0,0,7.33,28,1.31,1.31,0,0,0,8,27.79L25.23,16.94a1.66,1.66,0,0,0-.06-2.84L8,4.18A1.28,1.28,0,0,0,7.38,4Z"/></g></g></g></svg>