<svg xmlns="http://www.w3.org/2000/svg" width="27.186" height="27.186" viewBox="0 0 27.186 27.186">
  <g id="profile" transform="translate(-2 -2)">
    <g id="Group_1176" data-name="Group 1176" transform="translate(2 2)">
      <path id="Path_1337" data-name="Path 1337" d="M15.593,2A13.593,13.593,0,1,0,29.186,15.593,13.6,13.6,0,0,0,15.593,2Zm0,1.359a12.231,12.231,0,0,1,8.562,20.968,8.846,8.846,0,0,0-6.475-6.438,5.436,5.436,0,1,0-4.176,0,8.847,8.847,0,0,0-6.473,6.438A12.231,12.231,0,0,1,15.593,3.359Zm0,5.344a4.172,4.172,0,1,1-4.173,4.171A4.162,4.162,0,0,1,15.593,8.7Zm0,10.287a7.458,7.458,0,0,1,7.372,6.35,12.176,12.176,0,0,1-14.74,0A7.455,7.455,0,0,1,15.593,18.991Z" transform="translate(-2 -2)" fill="#fff"/>
    </g>
  </g>
</svg>
