<svg xmlns="http://www.w3.org/2000/svg" width="29.022" height="27" viewBox="0 0 29.022 27">
  <g id="Purchase" transform="translate(-6.411 -11.6)">
    <g id="Group_1177" data-name="Group 1177" transform="translate(6.411 11.6)">
      <path id="Path_1349" data-name="Path 1349" d="M43.866,16.352a.867.867,0,0,0-.669-.317H22.252L21.512,12.3a.869.869,0,0,0-.845-.7H15.88a.88.88,0,1,0,0,1.76h4.083L22.78,27.582a3.914,3.914,0,0,0,3.8,3.133h11.3a3.917,3.917,0,0,0,3.8-3.063l2.288-10.561A.763.763,0,0,0,43.866,16.352ZM40.029,27.265a2.151,2.151,0,0,1-2.112,1.69h-11.3A2.182,2.182,0,0,1,24.5,27.23l-1.9-9.5h19.5Z" transform="translate(-15 -11.6)" fill="#fff"/>
      <path id="Path_1350" data-name="Path 1350" d="M43.409,69.5a3.309,3.309,0,1,0,3.309,3.309A3.305,3.305,0,0,0,43.409,69.5Zm0,4.928a1.584,1.584,0,1,1,1.584-1.584A1.578,1.578,0,0,1,43.409,74.428Z" transform="translate(-31.264 -49.118)" fill="#fff"/>
      <path id="Path_1351" data-name="Path 1351" d="M71.909,69.5a3.309,3.309,0,1,0,3.309,3.309A3.305,3.305,0,0,0,71.909,69.5Zm0,4.928a1.584,1.584,0,1,1,1.584-1.584A1.556,1.556,0,0,1,71.909,74.428Z" transform="translate(-49.732 -49.118)" fill="#fff"/>
    </g>
  </g>
</svg>
