<svg xmlns="http://www.w3.org/2000/svg" width="93.665" height="60.207" viewBox="0 0 93.665 60.207"><defs><style>.a{fill:#272727;}</style></defs><g transform="translate(-11.995 -22)"><g transform="translate(11.995 22)"><path class="a" d="M55.478,43.707A21.741,21.741,0,1,0,30.019,65.159c.565,7.659-5.761,14.127-5.829,14.2a1.673,1.673,0,0,0,1.186,2.853,1.646,1.646,0,0,0,.447-.061C56.169,73.716,55.538,45.263,55.478,43.707ZM30.006,77.2c2.055-3.361,4.094-8.3,3.165-13.792a1.671,1.671,0,0,0-1.466-1.384A18.394,18.394,0,1,1,52.133,43.741c0,.033,0,.065,0,.1C52.151,44.093,53.245,67.7,30.006,77.2Z" transform="translate(-11.995 -22)"/><path class="a" d="M85.478,43.707A21.741,21.741,0,1,0,60.019,65.159c.565,7.659-5.761,14.127-5.829,14.2a1.673,1.673,0,0,0,1.186,2.853,1.646,1.646,0,0,0,.447-.061C86.169,73.716,85.538,45.263,85.478,43.707ZM60.006,77.2c2.055-3.361,4.094-8.3,3.165-13.792a1.671,1.671,0,0,0-1.466-1.384A18.394,18.394,0,1,1,82.133,43.741c0,.033,0,.065,0,.1C82.151,44.093,83.245,67.7,60.006,77.2Z" transform="translate(8.177 -22)"/></g></g></svg>