<?xml version="1.0" encoding="utf-8"?>
<!-- Generator: Adobe Illustrator 17.0.0, SVG Export Plug-In . SVG Version: 6.00 Build 0)  -->
<!DOCTYPE svg PUBLIC "-//W3C//DTD SVG 1.1//EN" "http://www.w3.org/Graphics/SVG/1.1/DTD/svg11.dtd">
<svg version="1.1" id="Layer_1" xmlns="http://www.w3.org/2000/svg" xmlns:xlink="http://www.w3.org/1999/xlink" x="0px" y="0px"
	 width="60px" height="60px" viewBox="0 0 60 60" enable-background="new 0 0 60 60" xml:space="preserve">
<g id="Group_1153" transform="translate(5 -33)">
	<g id="Search" transform="translate(1805 135)">
		<path id="Path_2" fill="#272727" d="M-1802.495-75.738c-0.101-10.258,8.133-18.656,18.392-18.756c0.122-0.001,0.243-0.001,0.365,0
			c10.258-0.102,18.657,8.131,18.759,18.389c0.001,0.123,0.001,0.247,0,0.37c0.102,10.258-8.131,18.657-18.389,18.759
			c-0.123,0.001-0.247,0.001-0.37,0c-10.258,0.101-18.656-8.133-18.756-18.392C-1802.496-75.492-1802.496-75.615-1802.495-75.738z
			 M-1756.349-43.089c1.453,1.453,3.807,1.453,5.26,0c1.453-1.453,1.453-3.808,0-5.26l-11.64-11.631
			c3.447-4.526,5.295-10.069,5.252-15.758c0.09-14.414-11.522-26.171-25.936-26.261c-0.108-0.001-0.217-0.001-0.325,0
			c-14.414-0.09-26.171,11.522-26.261,25.936c-0.001,0.108-0.001,0.217,0,0.325c-0.09,14.414,11.522,26.171,25.936,26.261
			c0.108,0.001,0.217,0.001,0.325,0c5.689,0.043,11.232-1.804,15.758-5.252L-1756.349-43.089z"/>
	</g>
</g>
</svg>
