<svg xmlns="http://www.w3.org/2000/svg" width="25.205" height="25.205" viewBox="0 0 25.205 25.205">
  <g id="Settings" transform="translate(-5.75 -5.75)">
    <path id="Path_1352" data-name="Path 1352" d="M30.191,15.64H28.457a10.34,10.34,0,0,0-1.046-2.518L28.639,11.9a.761.761,0,0,0,0-1.076L25.881,8.061a.761.761,0,0,0-1.076,0L23.579,9.29a10.344,10.344,0,0,0-2.518-1.046V6.511A.761.761,0,0,0,20.3,5.75H16.4a.761.761,0,0,0-.761.761V8.244a10.344,10.344,0,0,0-2.518,1.046L11.9,8.063a.761.761,0,0,0-1.076,0L8.061,10.821a.761.761,0,0,0,0,1.076l1.228,1.228a10.34,10.34,0,0,0-1.046,2.518H6.511a.761.761,0,0,0-.761.761v3.9a.761.761,0,0,0,.761.761H8.244a10.34,10.34,0,0,0,1.046,2.518L8.063,24.808a.761.761,0,0,0,0,1.076l2.758,2.758a.761.761,0,0,0,1.076,0l1.228-1.228a10.344,10.344,0,0,0,2.518,1.046v1.734a.761.761,0,0,0,.761.761h3.9a.761.761,0,0,0,.761-.761V28.461a10.344,10.344,0,0,0,2.518-1.046l1.228,1.228a.761.761,0,0,0,1.076,0l2.758-2.758a.761.761,0,0,0,0-1.076l-1.228-1.228a10.34,10.34,0,0,0,1.046-2.518h1.734a.761.761,0,0,0,.761-.761V16.4a.761.761,0,0,0-.764-.761Zm-.761,3.9H27.855a.761.761,0,0,0-.746.609,8.846,8.846,0,0,1-1.3,3.123.761.761,0,0,0,.1.957l1.116,1.116-1.681,1.681L24.229,25.91a.761.761,0,0,0-.957-.1,8.848,8.848,0,0,1-3.123,1.3.761.761,0,0,0-.609.745V29.43H17.162V27.855a.761.761,0,0,0-.609-.745,8.848,8.848,0,0,1-3.123-1.3.761.761,0,0,0-.957.1l-1.116,1.116L9.676,25.344l1.116-1.116a.761.761,0,0,0,.1-.957,8.846,8.846,0,0,1-1.3-3.123.761.761,0,0,0-.746-.609H7.272V17.162H8.847a.761.761,0,0,0,.746-.609,8.846,8.846,0,0,1,1.3-3.123.761.761,0,0,0-.1-.957L9.676,11.357l1.681-1.681,1.116,1.116a.761.761,0,0,0,.957.1,8.848,8.848,0,0,1,3.122-1.3.761.761,0,0,0,.609-.745V7.272H19.54V8.847a.761.761,0,0,0,.609.745,8.848,8.848,0,0,1,3.123,1.3.761.761,0,0,0,.957-.1l1.116-1.116,1.681,1.681L25.91,12.474a.761.761,0,0,0-.1.957,8.846,8.846,0,0,1,1.3,3.123.761.761,0,0,0,.746.609H29.43Z" fill="#fff"/>
    <path id="Path_1353" data-name="Path 1353" d="M46.984,41.109a5.875,5.875,0,1,0,5.875,5.875A5.875,5.875,0,0,0,46.984,41.109Zm0,10.229a4.354,4.354,0,1,1,4.354-4.354A4.354,4.354,0,0,1,46.984,51.338Z" transform="translate(-28.634 -28.634)" fill="#fff"/>
  </g>
</svg>
