<?xml version="1.0" encoding="utf-8"?>
<!-- Generator: Adobe Illustrator 17.0.0, SVG Export Plug-In . SVG Version: 6.00 Build 0)  -->
<!DOCTYPE svg PUBLIC "-//W3C//DTD SVG 1.1//EN" "http://www.w3.org/Graphics/SVG/1.1/DTD/svg11.dtd">
<svg version="1.1" id="Layer_1" xmlns="http://www.w3.org/2000/svg" xmlns:xlink="http://www.w3.org/1999/xlink" x="0px" y="0px"
	 width="25.205px" height="25.205px" viewBox="0 0 25.205 25.205" enable-background="new 0 0 25.205 25.205" xml:space="preserve">
<g id="Settings" transform="translate(-5.75 -5.75)">
	<path id="Path_1352" fill="#2E2E2E" d="M30.191,15.64h-1.734c-0.236-0.882-0.588-1.729-1.046-2.518l1.228-1.222
		c0.297-0.297,0.297-0.779,0-1.076l-2.758-2.763c-0.297-0.297-0.779-0.297-1.076,0L23.579,9.29c-0.79-0.458-1.636-0.81-2.518-1.046
		V6.511c0-0.42-0.341-0.761-0.761-0.761l0,0h-3.9c-0.42,0-0.761,0.341-0.761,0.761v1.733c-0.882,0.236-1.728,0.588-2.518,1.046
		L11.9,8.063c-0.297-0.297-0.779-0.297-1.076,0l-2.763,2.758c-0.297,0.297-0.297,0.779,0,1.076l1.228,1.228
		c-0.458,0.789-0.81,1.636-1.046,2.518H6.511c-0.42,0-0.761,0.341-0.761,0.761v3.9c0,0.42,0.341,0.761,0.761,0.761h1.733
		c0.236,0.882,0.588,1.729,1.046,2.518l-1.227,1.225c-0.297,0.297-0.297,0.779,0,1.076l2.758,2.758c0.297,0.297,0.779,0.297,1.076,0
		l1.228-1.228c0.79,0.458,1.636,0.81,2.518,1.046v1.734c0,0.42,0.341,0.761,0.761,0.761l0,0h3.9c0.42,0,0.761-0.341,0.761-0.761
		v-1.733c0.882-0.236,1.728-0.588,2.518-1.046l1.228,1.228c0.297,0.297,0.779,0.297,1.076,0l2.758-2.758
		c0.297-0.297,0.297-0.779,0-1.076l-1.228-1.228c0.458-0.789,0.81-1.636,1.046-2.518h1.734c0.42,0,0.761-0.341,0.761-0.761V16.4
		c0-0.42-0.341-0.761-0.761-0.761c-0.001,0-0.002,0-0.003,0L30.191,15.64z M29.43,19.54h-1.575c-0.362,0-0.674,0.254-0.746,0.609
		c-0.228,1.115-0.67,2.175-1.3,3.123c-0.198,0.302-0.156,0.702,0.1,0.957l1.116,1.116l-1.681,1.681l-1.115-1.116
		c-0.255-0.256-0.655-0.298-0.957-0.1c-0.948,0.63-2.008,1.072-3.123,1.3c-0.354,0.072-0.609,0.384-0.609,0.745v1.575h-2.378v-1.575
		c0-0.361-0.255-0.673-0.609-0.745c-1.115-0.228-2.175-0.67-3.123-1.3c-0.302-0.198-0.702-0.156-0.957,0.1l-1.116,1.116
		l-1.681-1.682l1.116-1.116c0.256-0.255,0.298-0.655,0.1-0.957c-0.63-0.948-1.072-2.008-1.3-3.123
		c-0.072-0.355-0.384-0.609-0.746-0.609H7.272v-2.377h1.575c0.362,0,0.674-0.254,0.746-0.609c0.228-1.115,0.67-2.175,1.3-3.123
		c0.198-0.302,0.156-0.702-0.1-0.957l-1.117-1.116l1.681-1.681l1.116,1.116c0.255,0.256,0.655,0.298,0.957,0.1
		c0.947-0.63,2.007-1.071,3.122-1.3c0.354-0.072,0.609-0.384,0.609-0.745V7.272h2.379v1.575c0,0.361,0.255,0.673,0.609,0.745
		c1.115,0.228,2.175,0.67,3.123,1.3c0.302,0.198,0.702,0.156,0.957-0.1l1.116-1.116l1.681,1.681l-1.116,1.117
		c-0.256,0.255-0.298,0.655-0.1,0.957c0.63,0.948,1.072,2.008,1.3,3.123c0.072,0.355,0.384,0.609,0.746,0.609h1.574
		C29.43,17.163,29.43,19.54,29.43,19.54z"/>
	<path id="Path_1353" fill="#2E2E2E" d="M18.35,12.475c-3.245,0-5.875,2.63-5.875,5.875s2.63,5.875,5.875,5.875
		s5.875-2.63,5.875-5.875l0,0C24.225,15.105,21.595,12.475,18.35,12.475z M18.35,22.704c-2.405,0-4.354-1.949-4.354-4.354
		s1.949-4.354,4.354-4.354s4.354,1.949,4.354,4.354l0,0C22.704,20.755,20.755,22.704,18.35,22.704z"/>
</g>
</svg>
