<?xml version="1.0" encoding="utf-8"?>
<!-- Generator: Adobe Illustrator 17.0.0, SVG Export Plug-In . SVG Version: 6.00 Build 0)  -->
<!DOCTYPE svg PUBLIC "-//W3C//DTD SVG 1.1//EN" "http://www.w3.org/Graphics/SVG/1.1/DTD/svg11.dtd">
<svg version="1.1" id="Layer_1" xmlns="http://www.w3.org/2000/svg" xmlns:xlink="http://www.w3.org/1999/xlink" x="0px" y="0px"
	 width="40px" height="40px" viewBox="0 0 40 40" enable-background="new 0 0 40 40" xml:space="preserve">
<circle fill="#FFFFFF" cx="20" cy="20" r="19.5"/>
<path fill="#010101" d="M26,10c-1.657,0-3,1.343-3,3c0.001,0.188,0.019,0.376,0.055,0.561l-7.115,4.15C15.398,17.252,14.71,17,14,17
	c-1.657,0-3,1.343-3,3s1.343,3,3,3c0.709-0.001,1.395-0.254,1.936-0.713l7.119,4.152C23.019,26.624,23.001,26.812,23,27
	c0,1.657,1.343,3,3,3s3-1.343,3-3s-1.343-3-3-3c-0.71,0.001-1.396,0.254-1.938,0.713l-7.117-4.152
	C16.981,20.376,16.999,20.188,17,20c-0.001-0.188-0.019-0.376-0.055-0.561l7.115-4.15C24.602,15.748,25.29,16,26,16
	c1.657,0,3-1.343,3-3S27.657,10,26,10z"/>
</svg>
