<svg xmlns="http://www.w3.org/2000/svg" width="27.056" height="27" viewBox="0 0 27.056 27"><defs><style>.a{fill:#272727;}</style></defs><g transform="translate(-14.001 -15.106)"><g transform="translate(14.001 21.571)"><path class="a" d="M19.976,41.123H15.6a1.6,1.6,0,0,1-1.6-1.6V28.655a1.6,1.6,0,0,1,1.6-1.6h4.374a1.6,1.6,0,0,1,1.6,1.6V39.522A1.6,1.6,0,0,1,19.976,41.123Zm-3.811-2.165h3.247v-9.74H16.165Z" transform="translate(-14.001 -27.054)"/></g><g transform="translate(19.812 15.106)"><path class="a" d="M33.557,42.106a1.593,1.593,0,0,1-1.006-.361L24.739,35.4l1.365-1.68L33,39.319V17.893l-6.893,5.6-1.365-1.68,7.812-6.347a1.6,1.6,0,0,1,2.61,1.242V40.5a1.587,1.587,0,0,1-.913,1.446A1.606,1.606,0,0,1,33.557,42.106Z" transform="translate(-24.739 -15.106)"/></g><g transform="translate(31.815 21.207)"><path class="a" d="M48.089,40.808l-1.167-1.823A6.493,6.493,0,0,0,49.67,33.48a6.622,6.622,0,0,0-2.514-5.346l1.269-1.753a8.7,8.7,0,0,1,3.41,7.1A8.67,8.67,0,0,1,48.089,40.808Z" transform="translate(-46.922 -26.38)"/></g><g transform="translate(36.023 19.142)"><path class="a" d="M56.108,41.131,54.7,39.49c1.77-1.522,2.87-4.509,2.87-7.794,0-3.1-1.009-6-2.634-7.578l1.508-1.552c2.061,2,3.291,5.414,3.291,9.13C59.731,35.594,58.343,39.209,56.108,41.131Z" transform="translate(-54.697 -22.565)"/></g></g></svg>