<svg xmlns="http://www.w3.org/2000/svg" xmlns:xlink="http://www.w3.org/1999/xlink" width="90.994" height="90.994" viewBox="0 0 90.994 90.994">
  <defs>
    <filter id="Ellipse_5" x="0" y="0" width="90.994" height="90.994" filterUnits="userSpaceOnUse">
      <feOffset input="SourceAlpha"/>
      <feGaussianBlur stdDeviation="10" result="blur"/>
      <feFlood flood-opacity="0.161"/>
      <feComposite operator="in" in2="blur"/>
      <feComposite in="SourceGraphic"/>
    </filter>
  </defs>
  <g id="Group_1583" data-name="Group 1583" transform="translate(-727.655 -283.655)">
    <g id="Default" transform="translate(757.655 313.655)">
      <g transform="matrix(1, 0, 0, 1, -30, -30)" filter="url(#Ellipse_5)">
        <circle id="Ellipse_5-2" data-name="Ellipse 5" cx="15.497" cy="15.497" r="15.497" transform="translate(30 30)" fill="#fff"/>
      </g>
    </g>
    <g id="noun_tick_3532083" transform="translate(768.125 323.853)">
      <path id="Path_1367" data-name="Path 1367" d="M15.472,7.84l-5.146,5.972L8.16,11.666a.975.975,0,1,0-1.379,1.379l2.913,2.913a1.02,1.02,0,0,0,.689.282h0a.971.971,0,0,0,.7-.34l5.826-6.8A.971.971,0,1,0,15.433,7.84Z" transform="translate(-6.496 -7.5)" fill="#272727"/>
    </g>
  </g>
</svg>
