<svg xmlns="http://www.w3.org/2000/svg" width="115.806" height="55.645" viewBox="0 0 115.806 55.645">
  <g id="Group_1645" data-name="Group 1645" transform="translate(-639.368 -3255.461)">
    <g id="noun_delivery_truck_4208594_1_" data-name="noun_delivery truck_4208594(1)" transform="translate(668.826 3255.461)">
      <g id="Delivery_truck" data-name="Delivery truck" transform="translate(0 0)">
        <path id="Path_1372" data-name="Path 1372" d="M7.661,56.348H9.321V33.715a1.661,1.661,0,1,1,3.321,0V48.361h2.69a1.661,1.661,0,0,1,0,3.321h-2.69v4.666H20.48a7.954,7.954,0,0,1,9.548,0H44.392V53.326a1.661,1.661,0,0,1,1.661-1.661H57.228V29.215a1.311,1.311,0,0,1,0-.216V18.571H12.642v8.452a1.661,1.661,0,1,1-3.321,0V16.911a1.661,1.661,0,0,1,1.661-1.661H58.9a1.661,1.661,0,0,1,1.661,1.661V27.555H78.051a1.661,1.661,0,0,1,1.661,1.312L82.7,42.333l3.9,1.312a1.661,1.661,0,0,1,1.146,1.578V56.348h2.939a1.661,1.661,0,0,1,1.661,1.661v4.8a1.661,1.661,0,0,1-1.661,1.661H81.139a8.054,8.054,0,0,1-15.775,0H33.133a8.054,8.054,0,0,1-15.759,0H7.661A1.661,1.661,0,0,1,6,62.808v-4.8A1.661,1.661,0,0,1,7.661,56.348ZM32.685,59.67a7.589,7.589,0,0,1,.448,1.478H44.392V59.67Zm56.342,1.478V59.67H82.983a1.661,1.661,0,0,1,0-3.321h1.411V51.882H81.206a1.661,1.661,0,0,1,0-3.321h3.188V46.385l-3.67-1.2a1.661,1.661,0,0,1-1.1-1.212l-2.906-13.1H60.516V61.147h4.849a8.07,8.07,0,0,1,15.775,0Zm-15.775,6.41a4.749,4.749,0,1,0-4.733-4.749,4.749,4.749,0,0,0,4.733,4.749Zm-25.024-6.41h9.017V54.987H47.729v6.161Zm-22.965,6.41a4.749,4.749,0,1,0-4.749-4.749,4.749,4.749,0,0,0,4.749,4.749Zm-7.888-6.41a7.639,7.639,0,0,1,.465-1.478H9.321v1.478Z" transform="translate(-6 -15.25)" fill="#272727"/>
        <ellipse id="Ellipse_285" data-name="Ellipse 285" cx="1.594" cy="1.594" rx="1.594" ry="1.594" transform="translate(65.658 45.964)" fill="#272727"/>
        <ellipse id="Ellipse_286" data-name="Ellipse 286" cx="1.594" cy="1.594" rx="1.594" ry="1.594" transform="translate(17.668 45.964)" fill="#272727"/>
        <path id="Path_1373" data-name="Path 1373" d="M39.241,18.81H60.379a1.661,1.661,0,0,1,0,3.321H39.241a1.661,1.661,0,0,1,0-3.321Z" transform="translate(-28.132 -12.898)" fill="#272727"/>
        <path id="Path_1374" data-name="Path 1374" d="M29,20.471a1.661,1.661,0,0,1,1.661-1.661H38.7a1.661,1.661,0,0,1,0,3.321h-8A1.661,1.661,0,0,1,29,20.471Z" transform="translate(7.798 -12.898)" fill="#272727"/>
        <path id="Path_1375" data-name="Path 1375" d="M62.829,39.45a1.661,1.661,0,0,1-1.378-.731l-2.707-4.068H35.5a1.661,1.661,0,0,1,0-3.321H59.624A1.661,1.661,0,0,1,61,32.077l3.221,4.8a1.661,1.661,0,0,1-.465,2.292A1.561,1.561,0,0,1,62.829,39.45Z" transform="translate(-24.371 -4.628)" fill="#272727"/>
        <path id="Path_1376" data-name="Path 1376" d="M25.134,38.469H17.146a1.661,1.661,0,0,1-1.661-1.661v-9.6a1.661,1.661,0,0,1,1.661-1.661H23.54A1.661,1.661,0,0,1,25.2,26.945l1.661,9.6a1.649,1.649,0,0,1-1.727,1.926Zm-3.006-9.6H18.807v6.277h4.367Z" transform="translate(43.712 -8.446)" fill="#272727"/>
        <path id="Path_1377" data-name="Path 1377" d="M20.011,34.22h3.321a1.661,1.661,0,0,1,0,3.321H20.011a1.661,1.661,0,0,1,0-3.321Z" transform="translate(40.848 -2.719)" fill="#272727"/>
      </g>
    </g>
    <line id="Line_178" data-name="Line 178" x2="18.271" transform="translate(644.995 3267.395)" fill="none" stroke="#272727" stroke-linecap="round" stroke-width="3"/>
    <line id="Line_179" data-name="Line 179" x2="26.264" transform="translate(640.868 3278.395)" fill="none" stroke="#272727" stroke-linecap="round" stroke-width="3"/>
    <line id="Line_180" data-name="Line 180" x2="18.271" transform="translate(644.995 3289.395)" fill="none" stroke="#272727" stroke-linecap="round" stroke-width="3"/>
  </g>
</svg>
