<svg xmlns="http://www.w3.org/2000/svg" width="26.894" height="34.23" viewBox="0 0 26.894 34.23">
  <g id="noun_transgender_3998226" transform="translate(0.003)">
    <path id="Path_1398" data-name="Path 1398" d="M19.559.612V.589A.589.589,0,0,1,20.148,0H25.68a1.174,1.174,0,0,1,.849.362,1.169,1.169,0,0,1,.362.849V6.746a.589.589,0,0,1-.589.589H25.034a.589.589,0,0,1-.589-.589V6.722h0V4.165L19.59,9.035A10.638,10.638,0,0,1,22,15.8v.094c0,.043,0,.093,0,.143a10.573,10.573,0,0,1-2.824,7.208l.006-.007a10.662,10.662,0,0,1-6.914,3.578l-.046,0v2.522h1.857a.589.589,0,0,1,.589.589v.024h0V31.2a.589.589,0,0,1-.589.589H12.221v1.857a.589.589,0,0,1-.589.589H10.364a.589.589,0,0,1-.589-.589v-.024h0V31.784H7.918a.589.589,0,0,1-.589-.589v-.024h0V29.927a.589.589,0,0,1,.589-.589h1.86V26.813a10.67,10.67,0,0,1-5.2-1.988l.03.021a11.038,11.038,0,0,1-3.534-4.2l-.029-.066A10.641,10.641,0,0,1,0,15.931c0-.324.014-.646.043-.963l0,.041A10.659,10.659,0,0,1,3.095,8.256h0a10.993,10.993,0,0,1,11.06-2.912l-.077-.02a11.2,11.2,0,0,1,3.8,2L17.857,7.3l4.87-4.852H20.146a.589.589,0,0,1-.589-.589V1.838h0ZM11,24.449h.124a8.219,8.219,0,0,0,5.922-2.509v0a8.222,8.222,0,0,0,2.512-5.923c0-.044,0-.087,0-.131v.007c0-.037,0-.08,0-.124a8.219,8.219,0,0,0-2.509-5.922h0a8.532,8.532,0,0,0-12.094,0,8.222,8.222,0,0,0-2.512,5.923c0,.044,0,.087,0,.131v-.007c0,.037,0,.08,0,.124a8.219,8.219,0,0,0,2.509,5.922h0a8.222,8.222,0,0,0,5.923,2.512h.131Z" transform="translate(0)"/>
  </g>
</svg>
